<?xml version="1.0" encoding="utf-8"?>
<!-- Generator: Adobe Illustrator 26.3.1, SVG Export Plug-In . SVG Version: 6.00 Build 0)  -->
<svg version="1.1" id="Layer_1" xmlns="http://www.w3.org/2000/svg" xmlns:xlink="http://www.w3.org/1999/xlink" x="0px" y="0px"
	 viewBox="0 0 50 36.1" style="enable-background:new 0 0 50 36.1;" xml:space="preserve">
<style type="text/css">
	.st0{fill:#FFFFFF;}
</style>
<g id="Grupo_13">
	<path id="Trazado_31" class="st0" d="M38,35.6H10.7l-0.8-0.2c-3.8-0.7-6.9-3.5-7.8-7.3C0.9,24.5,2,20.4,5,17.9
		c1.1-1.1,2.5-1.8,4-2.3c0-0.1,0-0.2,0-0.3C8.9,9.6,13.3,5,18.9,4.9c0.7,0,1.4,0,2.1,0.2c0.3,0.1,0.7,0,0.9-0.3
		c1.6-2,3.7-3.3,6.2-3.9c0.5-0.1,1-0.2,1.5-0.3h2.6c0.1,0,0.2,0.1,0.2,0.1c2.7,0.3,5.2,1.6,7.1,3.7c2.3,2.4,3.4,5.7,3,9
		c-0.1,0.3,0.1,0.6,0.3,0.7c2.7,1.7,4.7,4.4,5.3,7.5c0.1,0.4,0.2,0.8,0.2,1.1v2.6c0,0.1-0.1,0.2-0.1,0.2c-0.6,4.8-4.1,8.7-8.7,9.8
		C39,35.4,38.5,35.5,38,35.6 M25.1,12.4L16.5,21h5.7v8.7h5.8V21h5.7L25.1,12.4"/>
</g>
</svg>
