<?xml version="1.0" encoding="utf-8"?>
<!-- Generator: Adobe Illustrator 26.3.1, SVG Export Plug-In . SVG Version: 6.00 Build 0)  -->
<svg version="1.1" id="Layer_1" xmlns="http://www.w3.org/2000/svg" xmlns:xlink="http://www.w3.org/1999/xlink" x="0px" y="0px"
	 viewBox="0 0 50 50" style="enable-background:new 0 0 50 50;" xml:space="preserve">
<style type="text/css">
	.st0{fill:#DC354B;}
	.st1{clip-path:url(#SVGID_00000003794583509141605510000016297335094130944692_);}
	.st2{fill:#FFFFFF;}
</style>
<g>
	<circle class="st0" cx="25" cy="25" r="24.3"/>
	<g id="Grupo_9" transform="translate(13.505 13.951)">
		<g>
			<defs>
				<rect id="SVGID_1_" x="0.3" y="0.3" width="22.3" height="22.1"/>
			</defs>
			<clipPath id="SVGID_00000011714961713985852540000010786784970268137650_">
				<use xlink:href="#SVGID_1_"  style="overflow:visible;"/>
			</clipPath>
			<g id="Grupo_9-2" style="clip-path:url(#SVGID_00000011714961713985852540000010786784970268137650_);">
				<path id="Trazado_11" class="st2" d="M8.1,22.4H6.7c-0.2,0-0.3,0-0.5-0.1c-1.1-0.2-2-1-2.3-2c-0.1-0.4-0.2-0.9-0.2-1.4
					c0-2.4,0-4.9,0-7.3c0-1.6,0-3.2,0-4.7c0-0.8,0.3-1.6,0.8-2.2c0.5-0.6,1.3-1,2.1-1c0.8,0,1.5,0,2.3,0c1.8,0,3.6,0,5.4,0
					c0.4,0,0.8,0,1.2,0c1.3,0.2,2.3,1.2,2.6,2.5c0,0.5,0.1,0.9,0.1,1.4c0,0,0,0.1,0,0.1l0.1,0c0.6-0.5,1.3-0.7,2-0.6
					c1.1,0.1,2,0.8,2.3,1.9c0.1,0.2,0.1,0.4,0.1,0.6V10c0,0,0,0.1,0,0.1c-0.1,0.7-0.4,1.3-0.9,1.8c-1.2,1-2.3,2.1-3.5,3.1
					c-0.1,0-0.1,0.1-0.1,0.2c0,1.1,0,2.2,0,3.2c0,0.4,0,0.9,0,1.3c-0.2,1.5-1.4,2.6-2.9,2.7c-0.7,0-1.4,0-2.1,0c-1.6,0-3.2,0-4.9,0
					C8.2,22.4,8.2,22.4,8.1,22.4 M12.6,14.6c-0.1-0.1-0.2-0.2-0.3-0.3c-1-1-1.9-2-2.9-3c-0.5-0.5-1.2-0.5-1.8-0.2
					c-0.6,0.4-0.6,1.2-0.2,1.8c0,0,0.1,0.1,0.1,0.1c1.4,1.4,2.8,2.8,4.1,4.2c0.5,0.5,1.3,0.5,1.8,0.1c0,0,0,0,0,0l1.5-1.4l3.8-3.4
					c0.7-0.6,1.4-1.2,2.1-1.8c0.3-0.3,0.5-0.7,0.4-1.1c-0.1-0.7-0.7-1.2-1.4-1.1c-0.3,0-0.5,0.2-0.7,0.3c-0.4,0.3-0.7,0.6-1.1,0.9
					L12.6,14.6"/>
				<path id="Trazado_12" class="st2" d="M12.6,0.3c0.1,0,0.2,0.1,0.3,0.1c0.4,0.2,0.6,0.7,0.4,1.2c-0.1,0.3-0.4,0.5-0.8,0.5
					c-1,0-2.1,0-3.1,0c-1.2,0-2.3,0-3.5,0C4.5,2.1,3.2,3,2.6,4.2C2.3,4.8,2.1,5.4,2.1,6.1c0,3.6,0,7.2,0,10.9c0,0.4-0.2,0.8-0.6,0.9
					C1,18,0.5,17.7,0.4,17.2c0,0,0-0.1,0-0.1c0,0,0,0,0,0V5.7l0-0.1c0.1-0.4,0.1-0.8,0.2-1.2C1,3.1,1.9,1.9,3.1,1.2
					c0.6-0.4,1.3-0.6,2-0.7c0.2,0,0.5-0.1,0.8-0.1H12.6z"/>
			</g>
		</g>
	</g>
</g>
</svg>
