<?xml version="1.0" encoding="utf-8"?>
<!-- Generator: Adobe Illustrator 26.3.1, SVG Export Plug-In . SVG Version: 6.00 Build 0)  -->
<svg version="1.1" id="Layer_1" xmlns="http://www.w3.org/2000/svg" xmlns:xlink="http://www.w3.org/1999/xlink" x="0px" y="0px"
	 viewBox="0 0 50 50" style="enable-background:new 0 0 50 50;" xml:space="preserve">
<style type="text/css">
	.st0{fill:#DC354B;}
	.st1{clip-path:url(#SVGID_00000166673394227694115480000006403407420820541349_);}
	.st2{fill:#FFFFFF;}
</style>
<g>
	<circle class="st0" cx="25" cy="25" r="24.3"/>
	<g id="Grupo_7" transform="translate(12.552 12.552)">
		<g>
			<defs>
				<rect id="SVGID_1_" x="0.8" y="0.8" width="23.3" height="23.3"/>
			</defs>
			<clipPath id="SVGID_00000067916161187337551250000015319388154133482429_">
				<use xlink:href="#SVGID_1_"  style="overflow:visible;"/>
			</clipPath>
			<g id="Grupo_7-2" style="clip-path:url(#SVGID_00000067916161187337551250000015319388154133482429_);">
				<path id="Trazado_8" class="st2" d="M14.5,24.5H0.4v-1c0.3-0.6,0.9-0.4,1.5-0.5v-0.8c0-6.9,0-13.9,0-20.8C1.8,1,2,0.6,2.3,0.4
					h0.5C2.9,0.4,3,0.5,3.1,0.5c3.5,1.3,7.1,2.7,10.6,4c0.7,0.3,0.8,0.4,0.8,1.2c0,2.9,0,5.8,0,8.7C14.6,17.8,14.6,21.2,14.5,24.5
					 M11.7,23.1c0-1.2,0-2.4,0-3.6c0-0.4-0.3-0.6-0.6-0.7c0,0,0,0,0,0c-0.7,0-1.4,0-2.2,0v4.2L11.7,23.1z M7.5,23.1v-4.2
					c-0.7,0-1.4,0-2.1,0C5,19,4.8,19.2,4.7,19.5c-0.1,1.2,0,2.4,0,3.6L7.5,23.1z M10.3,17.4c0.2,0,0.5,0,0.7,0
					c0.4,0,0.6-0.3,0.7-0.6c0,0,0,0,0,0c0.1-0.3-0.2-0.7-0.5-0.7c0,0-0.1,0-0.1,0c-0.5,0-1.1,0-1.6,0c-0.4,0-0.6,0.3-0.6,0.7
					c0,0,0,0,0,0c0,0.4,0.3,0.7,0.6,0.7c0,0,0,0,0,0C9.8,17.5,10.1,17.4,10.3,17.4 M10.4,7.5C10.4,7.5,10.4,7.5,10.4,7.5
					c-0.3,0-0.6,0-0.9,0c-0.4,0-0.6,0.3-0.6,0.7c0,0.4,0.3,0.7,0.6,0.7c0,0,0,0,0,0c0.5,0,1,0,1.6,0c0.4,0,0.6-0.3,0.6-0.6
					c0,0,0,0,0,0c0-0.4-0.2-0.7-0.6-0.7c0,0,0,0,0,0C10.9,7.5,10.6,7.5,10.4,7.5 M6.1,9L6.1,9c0.3,0,0.5,0,0.8,0
					c0.4,0,0.6-0.3,0.6-0.7c0,0,0,0,0,0c0-0.3-0.2-0.7-0.5-0.7c0,0,0,0-0.1,0c-0.5,0-1.1,0-1.6,0c-0.4,0-0.6,0.3-0.6,0.7
					c0,0,0,0,0,0c0,0.4,0.2,0.7,0.6,0.7c0,0,0,0,0,0C5.6,9,5.8,9,6.1,9 M6.1,17.4c0.2,0,0.5,0,0.7,0c0.3,0,0.6-0.3,0.6-0.6
					c0,0,0,0,0,0c0.1-0.3-0.2-0.6-0.5-0.7c0,0,0,0-0.1,0c-0.5,0-1.1,0-1.7,0c-0.3,0-0.6,0.3-0.6,0.7c0,0,0,0,0,0
					c0,0.4,0.3,0.7,0.6,0.7c0,0,0,0,0.1,0C5.6,17.5,5.8,17.4,6.1,17.4 M10.3,10.4c-0.2,0-0.5,0-0.7,0c-0.4,0-0.7,0.3-0.7,0.7
					c0,0,0,0,0,0c0,0.4,0.2,0.7,0.6,0.7c0,0,0,0,0,0c0.5,0,1,0,1.5,0c0.4,0,0.6-0.3,0.6-0.7c0,0,0-0.1,0-0.1c0-0.4-0.3-0.7-0.7-0.7
					c0,0,0,0,0,0C10.8,10.4,10.6,10.4,10.3,10.4 M10.3,14.6L10.3,14.6c0.2,0,0.5,0,0.7,0c0.4,0,0.7-0.3,0.7-0.7c0,0,0,0,0,0
					c0-0.4-0.2-0.7-0.6-0.7c0,0-0.1,0-0.1,0c-0.5,0-1,0-1.4,0c-0.4,0-0.7,0.3-0.7,0.6c0,0,0,0,0,0.1c0,0.4,0.3,0.7,0.7,0.7
					c0,0,0,0,0,0C9.8,14.6,10.1,14.6,10.3,14.6 M6.1,10.4L6.1,10.4c-0.2,0-0.5,0-0.7,0c-0.4,0-0.7,0.3-0.7,0.7c0,0,0,0,0,0
					c0,0.4,0.2,0.7,0.6,0.7c0,0,0,0,0,0c0.5,0,1.1,0,1.6,0c0.3,0,0.6-0.3,0.6-0.6c0,0,0-0.1,0-0.1c0-0.4-0.3-0.7-0.6-0.7
					c0,0,0,0,0,0C6.6,10.4,6.3,10.4,6.1,10.4 M6.1,14.6L6.1,14.6c0.2,0,0.4,0,0.6,0c0.4,0,0.8-0.2,0.8-0.7c0-0.4-0.2-0.7-0.6-0.7
					c0,0-0.1,0-0.1,0c-0.5,0-0.9,0-1.4,0c-0.4,0-0.7,0.2-0.7,0.6c0,0,0,0.1,0,0.1c0,0.5,0.3,0.7,0.7,0.7C5.6,14.6,5.9,14.6,6.1,14.6
					"/>
				<path id="Trazado_9" class="st2" d="M16,24.5c0-0.9,0-1.7,0-2.6c0-4.3,0-8.7,0-13V8.2c0.6,0.2,1.2,0.4,1.7,0.5
					c1.5,0.5,3,1,4.6,1.5c0.5,0.1,0.8,0.5,0.8,1c0,3.6,0,7.3,0,10.9c0,0.3,0,0.5,0,0.8c0.5,0.1,1.1-0.1,1.5,0.5v1L16,24.5z
					 M21.6,23.1c0-1.2,0-2.4,0-3.5c0-0.4-0.2-0.7-0.6-0.7c0,0-0.1,0-0.1,0c-0.9,0-1.9,0-2.8,0c-0.3,0-0.6,0.2-0.7,0.6c0,0,0,0,0,0.1
					c0,1.2,0,2.4,0,3.6h1.4v-2.8h1.4v2.8L21.6,23.1z M19.5,17.4h1.3c0.4,0.1,0.7-0.2,0.7-0.5c0,0,0-0.1,0-0.1c0-0.4-0.2-0.7-0.6-0.7
					c0,0-0.1,0-0.1,0c-0.9,0-1.9,0-2.8,0c-0.4,0-0.7,0.3-0.7,0.7c0,0.4,0.3,0.7,0.7,0.7C18.6,17.4,19.1,17.4,19.5,17.4 M19.5,14.6
					h1.2c0,0,0.1,0,0.1,0c0.5,0,0.8-0.3,0.8-0.7c0-0.5-0.4-0.7-0.8-0.7c-0.9,0-1.8,0-2.6,0c-0.5,0-0.8,0.3-0.8,0.7
					c0,0.4,0.3,0.7,0.8,0.7C18.7,14.7,19.1,14.6,19.5,14.6"/>
			</g>
		</g>
	</g>
</g>
</svg>
