<?xml version="1.0" encoding="utf-8"?>
<!-- Generator: Adobe Illustrator 26.3.1, SVG Export Plug-In . SVG Version: 6.00 Build 0)  -->
<svg version="1.1" id="Layer_1" xmlns="http://www.w3.org/2000/svg" xmlns:xlink="http://www.w3.org/1999/xlink" x="0px" y="0px"
	 viewBox="0 0 50 50" style="enable-background:new 0 0 50 50;" xml:space="preserve">
<style type="text/css">
	.st0{fill:#DC354B;}
	.st1{clip-path:url(#SVGID_00000070818273464983407290000012804018368495653030_);}
	.st2{fill:#FFFFFF;}
</style>
<g>
	<circle class="st0" cx="25" cy="25" r="24.3"/>
	<g id="Grupo_8" transform="translate(10.715 13.789)">
		<g>
			<defs>
				<rect id="SVGID_1_" x="0.4" y="0.3" width="27.7" height="22.4"/>
			</defs>
			<clipPath id="SVGID_00000168806330983470895710000015125664825108124851_">
				<use xlink:href="#SVGID_1_"  style="overflow:visible;"/>
			</clipPath>
			<g id="Grupo_8-2" style="clip-path:url(#SVGID_00000168806330983470895710000015125664825108124851_);">
				<path id="Trazado_10" class="st2" d="M0.4,19.4V3.6c0,0,0-0.1,0-0.1c0.1-1.1,0.8-2.1,1.8-2.6c0.5-0.2,1-0.4,1.4-0.5h21.1
					c0,0,0.1,0,0.1,0c1.9,0.3,3.3,1.9,3.2,3.8c0,4.9,0,9.8,0,14.7c0,0.4-0.1,0.9-0.2,1.3c-0.5,1.6-2,2.6-3.7,2.6c-6.7,0-13.4,0-20,0
					c-0.1,0-0.2,0-0.2,0c-1.2,0-2.4-0.7-3-1.8C0.8,20.5,0.6,20,0.4,19.4 M14.1,8c0-0.4-0.1-0.8-0.1-1.3c0-1.5-1.2-2.8-2.7-3
					c-0.8-0.1-1.7,0-2.4,0.4C8,4.7,7.5,5.6,7.4,6.5C7.3,7,7.3,7.5,7.2,8C7,8,6.8,8.2,6.7,8.4c0,0,0,0,0,0C6.5,9.2,6.6,10,7.1,10.6
					c0.2,0.3,0.4,0.5,0.7,0.4c0.4,0.6,0.8,1.1,1.2,1.6c0.2,0.2,0.3,0.5,0.2,0.8C8.9,13.8,8.6,14,8.3,14c-0.3,0-0.6,0-0.8,0
					c-1.2,0-2.2,0.6-2.8,1.7c-0.4,0.8-0.5,1.8-0.4,2.7c0.1,0.4,0.4,0.7,0.8,0.7c0.1,0,0.2,0,0.3,0c3.5,0,7,0,10.5,0c0,0,0.1,0,0.1,0
					c0.6,0,1-0.5,1-1c0,0,0,0,0,0c0-0.3,0-0.7,0-1c-0.1-1.5-1.2-2.8-2.7-3c-0.4,0-0.8-0.1-1.3,0c-0.3,0-0.6-0.2-0.8-0.5
					c-0.1-0.3,0-0.6,0.2-0.8c0.3-0.4,0.6-0.9,0.9-1.3c0.1-0.1,0.1-0.2,0.1-0.3c0.3,0.1,0.5,0,0.7-0.3c0.4-0.6,0.6-1.3,0.4-2.1
					C14.7,8.2,14.6,8.1,14.1,8 M14.5,5.1c0.1,0.5,0.3,1,0.4,1.5c0,0.4,0.2,0.7,0.4,1c0.1,0.1,0.3,0.2,0.4,0.2c2.5,0,5,0,7.5,0
					c0.1,0,0.1,0,0.2,0c0.4,0,0.8-0.3,0.8-0.7c0,0,0-0.1,0-0.1c0-0.3,0-0.6,0-0.9c0-0.7-0.2-1-1-1L14.5,5.1L14.5,5.1z M14.1,12.8
					h9.2c0.1,0,0.1,0,0.2,0c0.4,0,0.8-0.3,0.8-0.7c0,0,0-0.1,0-0.1c0-0.3,0-0.6,0-1c0-0.7-0.3-0.9-0.9-0.9c-2.5,0-4.9,0-7.4,0
					c-0.2,0-0.3,0.1-0.4,0.3c-0.2,0.7-0.6,1.3-1.3,1.6c-0.1,0.1-0.1,0.1-0.2,0.2C14.1,12.4,14.1,12.6,14.1,12.8 M18,17.7h1.7
					c1.2,0,2.5,0,3.7,0c0.4,0.1,0.8-0.2,0.9-0.6c0-0.1,0-0.2,0-0.2c0-0.3,0-0.6,0-0.9c0-0.7-0.2-1-1-1h-5.9
					C17.9,15.8,18.1,16.7,18,17.7"/>
			</g>
		</g>
	</g>
</g>
</svg>
