<?xml version="1.0" encoding="utf-8"?>
<!-- Generator: Adobe Illustrator 26.3.1, SVG Export Plug-In . SVG Version: 6.00 Build 0)  -->
<svg version="1.1" id="Layer_1" xmlns="http://www.w3.org/2000/svg" xmlns:xlink="http://www.w3.org/1999/xlink" x="0px" y="0px"
	 viewBox="0 0 31.1 34.1" style="enable-background:new 0 0 31.1 34.1;" xml:space="preserve">
<style type="text/css">
	.st0{fill:#FFFFFF;}
</style>
<g>
	<g id="Grupo_39">
		<path id="Trazado_96" class="st0" d="M1.1,19.5c-0.2-3.9-0.4-7.8-0.6-11.7c-0.1-1,0.6-1.9,1.5-2c0.1,0,0.2,0,0.3,0
			c4.7-0.1,9.4-0.3,14-0.4c2.1-0.1,4.2-0.1,6.3-0.2c1-0.2,1.9,0.5,2,1.5c0,0.2,0,0.3,0,0.5c0.2,7.7,0.4,15.5,0.6,23.2
			c0,1.2-0.6,1.9-1.9,2c-2.4,0.2-4.8,0.3-7.2,0.4c-4.1,0.2-8.2,0.5-12.3,0.7c-1.4,0.1-2.2-0.5-2.3-2c-0.1-1.8-0.2-3.6-0.3-5.4
			C1.3,23.9,1.2,21.7,1.1,19.5 M2.3,7.5C2.7,14.1,3,20.6,3.4,27.2L23.6,26L23.1,6.9L2.3,7.5"/>
		<path id="Trazado_97" class="st0" d="M26.6,30c0-0.1,0-0.2,0-0.4c-0.1-4,0.1-7.9,0.7-11.8c0.6-4.4,1.1-8.7,1.6-13.2L8.1,2.3
			L7.5,4.6H5.7c0.3-1,0.5-2,0.8-3c0.2-0.8,1-1.2,1.8-1c6.7,0.8,13.5,1.5,20.2,2.3c1.2,0.2,2,1.3,2,2.5c-1,7.7-1.9,15.5-2.9,23.2
			C27.6,29.4,27.2,29.9,26.6,30"/>
		<path id="Trazado_98" class="st0" d="M13.5,23.1c-2,0.1-4,0.2-6,0.4c-0.1,0-0.3,0-0.4-0.1c-0.2-0.1-0.2-0.3-0.2-0.5
			c0.1-1.4,0.7-2.8,1.6-3.9c0.4-0.5,0.9-0.9,1.5-1.3c0,0,0.1,0,0.2,0c0,0,0,0,0,0c1.8,1.5,4.4,1.3,6-0.4c0-0.1,0.1-0.1,0.2,0
			c0,0,0,0,0,0c1.9,0.9,3.2,2.6,3.7,4.6c0,0.1,0,0.2,0,0.2c0,0.3-0.2,0.5-0.5,0.5c0,0-0.1,0-0.1,0L13.5,23.1"/>
		<path id="Trazado_99" class="st0" d="M16.8,14.3c0.1,2.1-1.5,3.9-3.5,4c-2.1,0.1-3.9-1.5-4-3.5c-0.1-2.1,1.5-3.9,3.5-4
			c0,0,0.1,0,0.1,0C14.9,10.7,16.6,12.2,16.8,14.3"/>
	</g>
</g>
</svg>
