<?xml version="1.0" encoding="utf-8"?>
<!-- Generator: Adobe Illustrator 26.3.1, SVG Export Plug-In . SVG Version: 6.00 Build 0)  -->
<svg version="1.1" id="Layer_1" xmlns="http://www.w3.org/2000/svg" xmlns:xlink="http://www.w3.org/1999/xlink" x="0px" y="0px"
	 viewBox="0 0 50 50" style="enable-background:new 0 0 50 50;" xml:space="preserve">
<style type="text/css">
	.st0{fill:#DC354B;}
	.st1{clip-path:url(#SVGID_00000112592141788752411390000002386670065218321577_);}
	.st2{fill:#FFFFFF;}
</style>
<circle class="st0" cx="25" cy="25" r="24.3"/>
<g id="Grupo_2" transform="translate(10 15)">
	<g>
		<defs>
			<rect id="SVGID_1_" x="0.4" y="0.3" width="29.2" height="20.1"/>
		</defs>
		<clipPath id="SVGID_00000114046243072119586040000013759086783912514952_">
			<use xlink:href="#SVGID_1_"  style="overflow:visible;"/>
		</clipPath>
		<g id="Grupo_1" style="clip-path:url(#SVGID_00000114046243072119586040000013759086783912514952_);">
			<path id="Trazado_1" class="st2" d="M9,13.4c0,1.1,0,2.2,0,3.3c0,0.1-0.1,0.2-0.2,0.3c-0.8,0.3-1.6,0.6-2.4,0.9
				c-1.1,0.4-2.4-0.2-2.8-1.3c-1-2.7-2-5.5-3-8.2C0.2,7.2,0.8,5.9,1.9,5.5c0,0,0,0,0,0c1.1-0.4,2.3-0.8,3.4-1.2
				C8.8,3,12.3,1.7,15.8,0.5c0.6-0.2,1.2-0.2,1.8,0c0.5,0.2,0.9,0.6,1.1,1.1C19.3,3,19.8,4.5,20.4,6c-0.2,0-0.3,0-0.4,0
				c-2.5,0-4.9,0-7.4,0C10.7,5.9,9.1,7.4,9,9.3c0,0.1,0,0.2,0,0.4c0,0.7,0,1.5,0,2.2c0,0.2-0.1,0.4-0.3,0.5c-0.9,0.3-1.9,0.7-2.8,1
				c-0.4,0.2-0.6,0.4-0.5,0.8c0.1,0.3,0.4,0.4,0.8,0.3c0.8-0.3,1.5-0.6,2.3-0.8C8.7,13.5,8.8,13.5,9,13.4 M7.6,9.7
				C7.4,9.2,7.2,8.7,7,8.2C6.8,7.9,6.4,7.8,6,7.9C5.4,8.1,4.9,8.3,4.3,8.6C3.9,8.7,3.7,9.2,3.8,9.7c0.1,0.4,0.3,0.7,0.4,1.1
				c0.2,0.5,0.7,0.7,1.1,0.6c0,0,0,0,0,0c0.6-0.2,1.1-0.4,1.7-0.6C7.4,10.6,7.6,10.3,7.6,9.7"/>
			<path id="Trazado_2" class="st2" d="M19.9,20.4c-2.4,0-4.9,0-7.3,0c-1.2,0.1-2.3-0.9-2.4-2.1c0-0.1,0-0.2,0-0.3
				c0-2.5,0-5.1,0-7.6c0-0.4,0-0.9,0.1-1.3c0.2-1.1,1.2-1.8,2.3-1.7c2.9,0,5.8,0,8.8,0c2,0,4,0,6,0c1.2-0.1,2.3,0.9,2.3,2.1
				c0,0.1,0,0.2,0,0.3c0,2.8,0,5.6,0,8.5c0,1.2-0.9,2.2-2.1,2.3c-0.1,0-0.1,0-0.2,0C24.9,20.4,22.4,20.3,19.9,20.4L19.9,20.4z
				 M11.7,13.3c0,0.1,0,0.3,0,0.4c0,1.4,0,2.9,0,4.3c0,0.6,0.3,0.9,0.9,0.9c4.9,0,9.7,0,14.6,0c0.6,0,0.9-0.2,0.9-0.9
				c0-1.4,0-2.9,0-4.3c0-0.1,0-0.2,0-0.4L11.7,13.3z M11.7,10.5h16.3c0-0.3,0-0.5,0-0.8c0-0.7-0.2-0.9-0.9-0.9c-1.5,0-3,0-4.5,0
				c-3.4,0-6.8,0-10.1,0c-0.5,0-0.8,0.2-0.8,0.6C11.7,9.8,11.7,10.1,11.7,10.5"/>
			<path id="Trazado_3" class="st2" d="M17.6,15.8h-3.7c-0.1,0-0.2,0-0.2,0c-0.3,0-0.5-0.3-0.5-0.6c0-0.3,0.2-0.5,0.5-0.5
				c0.1,0,0.2,0,0.4,0h7.3c0,0,0.1,0,0.1,0c0.3,0,0.6,0.2,0.6,0.5c0,0,0,0,0,0c0,0.3-0.2,0.5-0.5,0.5c0,0,0,0-0.1,0
				c-1.1,0-2.3,0-3.4,0L17.6,15.8L17.6,15.8"/>
		</g>
	</g>
</g>
</svg>
