<?xml version="1.0" encoding="utf-8"?>
<!-- Generator: Adobe Illustrator 26.3.1, SVG Export Plug-In . SVG Version: 6.00 Build 0)  -->
<svg version="1.1" id="Layer_1" xmlns="http://www.w3.org/2000/svg" xmlns:xlink="http://www.w3.org/1999/xlink" x="0px" y="0px"
	 viewBox="0 0 50 50" style="enable-background:new 0 0 50 50;" xml:space="preserve">
<style type="text/css">
	.st0{fill:#DC354B;}
	.st1{clip-path:url(#SVGID_00000145050617919594810270000012318784439334247848_);}
	.st2{fill:#FFFFFF;}
</style>
<circle class="st0" cx="25" cy="25" r="24.3"/>
<g id="Grupo_33" transform="translate(14 11)">
	<g>
		<defs>
			<rect id="SVGID_1_" x="-0.8" y="-0.9" width="23.5" height="29.7"/>
		</defs>
		<clipPath id="SVGID_00000013878318998757937620000010942698357420508305_">
			<use xlink:href="#SVGID_1_"  style="overflow:visible;"/>
		</clipPath>
		<g id="Grupo_32" style="clip-path:url(#SVGID_00000013878318998757937620000010942698357420508305_);">
			<path id="Trazado_88" class="st2" d="M22.8,5.5c0.1-2-1.4-3.7-3.4-3.9c-0.2,0-0.3,0-0.5,0c-0.6,0-1.3,0-1.9,0
				c-0.6,0.1-1.3-0.1-1.8-0.5c-0.5-0.2-1-0.3-1.5-0.3c-0.1,0-0.3,0-0.4-0.1c-0.4-1.2-1.7-2-2.9-1.6C9.6-0.5,9,0,8.8,0.8
				c-0.1,0-0.2,0.1-0.3,0.1C7.7,0.7,6.9,1,6.2,1.5C6.2,1.6,5.9,1.6,5.8,1.6c-0.9,0-1.9,0-2.8,0c-2,0-3.7,1.6-3.7,3.6
				c0,0,0,0.1,0,0.1c0,6.6,0,13.2,0,19.8c-0.1,1.8,1.2,3.3,2.9,3.6c0.1,0,0.2,0.1,0.2,0.1h17.2c1.5-0.2,2.7-1.3,3.1-2.8
				c0.1-0.4,0.1-0.7,0.1-1.1C22.8,18.5,22.8,12,22.8,5.5 M16.7,11.2c0.5,0,0.9,0.1,0.9,0.7s-0.4,0.8-0.9,0.8h-2.8
				c-0.9,0-1.8,0-2.7,0c-0.5,0-0.9-0.2-0.9-0.8c0-0.6,0.4-0.7,0.9-0.7C13,11.2,14.9,11.2,16.7,11.2 M11.1,0.3c0.6,0,1.1,0.5,1.1,1.1
				s-0.5,1.1-1.1,1.1c-0.6,0-1.1-0.5-1.1-1.1S10.4,0.3,11.1,0.3L11.1,0.3 M8.6,21.3c-0.5,0.7-0.9,1.4-1.4,2.1
				c-0.2,0.4-0.7,0.5-1,0.3c0,0-0.1,0-0.1,0c-0.4-0.2-0.9-0.4-1.3-0.7c-0.4-0.1-0.6-0.6-0.4-1c0.1-0.4,0.6-0.6,1-0.4
				c0,0,0.1,0,0.1,0.1C5.7,21.7,6,21.8,6.3,22c0.4-0.6,0.7-1.1,1.1-1.6C7.7,20,8,19.9,8.5,20.2C8.8,20.4,8.9,20.8,8.6,21.3
				C8.7,21.2,8.7,21.2,8.6,21.3 M8.6,16.1c-0.5,0.7-0.9,1.4-1.4,2.1c-0.2,0.4-0.7,0.5-1.1,0.3c0,0,0,0,0,0c-0.5-0.2-0.9-0.4-1.3-0.7
				c-0.4-0.2-0.6-0.6-0.4-1c0.2-0.4,0.6-0.6,1-0.4c0,0,0.1,0,0.1,0.1c0.3,0.1,0.5,0.3,0.8,0.4c0.4-0.6,0.7-1.1,1.1-1.6
				C7.7,14.9,8,14.7,8.4,15c0.3,0.2,0.5,0.6,0.3,1C8.7,16,8.7,16.1,8.6,16.1 M8.6,10.9c-0.5,0.7-0.9,1.4-1.4,2.1
				c-0.2,0.4-0.6,0.5-1,0.3c0,0,0,0-0.1,0c-0.5-0.2-0.9-0.5-1.4-0.7c-0.4-0.2-0.5-0.6-0.3-1c0.2-0.4,0.6-0.5,1-0.3
				c0.3,0.1,0.5,0.3,0.9,0.4l1-1.6c0.2-0.4,0.6-0.5,1-0.4c0.1,0,0.1,0.1,0.2,0.1c0.3,0.2,0.4,0.6,0.2,1C8.7,10.9,8.7,10.9,8.6,10.9
				 M8,5.3c-0.5,0-0.7-0.2-0.7-0.7c0-0.5,0-1.1,0-1.6c0-0.5,0.2-0.7,0.7-0.7c0.4-0.1,0.7,0,1,0.2c0.6,1.2,2,1.6,3.2,1.1
				c0.5-0.3,0.9-0.7,1.2-1.3c0.3-0.1,0.7-0.1,1.1,0c0.5,0,0.4,0.5,0.4,0.9c0,2,0,2-2,2h-1.8C10,5.3,9,5.3,8,5.3 M16.7,23
				c-0.9,0-1.9,0-2.8,0c-0.9,0-1.8,0-2.7,0c-0.5,0-0.9-0.2-0.9-0.7c0-0.5,0.4-0.8,0.9-0.8c1.9,0,3.7,0,5.6,0c0.5,0,0.9,0.2,0.9,0.7
				C17.6,22.8,17.2,23,16.7,23 M17.6,17.1c0,0.6-0.5,0.8-1,0.7c-0.9,0-1.8,0-2.7,0c-0.9,0-1.8,0-2.7,0c-0.7,0-1-0.3-1-0.8
				c0-0.6,0.4-0.7,1-0.7c1.8,0,3.6,0,5.4,0C17.3,16.3,17.7,16.6,17.6,17.1"/>
		</g>
	</g>
</g>
</svg>
