<?xml version="1.0" encoding="utf-8"?>
<!-- Generator: Adobe Illustrator 26.3.1, SVG Export Plug-In . SVG Version: 6.00 Build 0)  -->
<svg version="1.1" id="Layer_1" xmlns="http://www.w3.org/2000/svg" xmlns:xlink="http://www.w3.org/1999/xlink" x="0px" y="0px"
	 viewBox="0 0 50 50" style="enable-background:new 0 0 50 50;" xml:space="preserve">
<style type="text/css">
	.st0{fill:#FFFFFF;}
</style>
<g>
	<g id="Grupo_52">
		<path id="Trazado_101" class="st0" d="M17.9,48h-1.2c-0.2-0.1-0.4-0.1-0.5-0.2c-3.9-1.3-7.8-2.6-11.6-3.9
			c-1.3-0.4-2.2-1.5-2.5-2.8C2.1,41.1,2,41,2,40.9V5.2C2,5.1,2.1,5,2.1,4.9c0.3-1.4,1.4-2.4,2.8-2.8C5.5,2,6.1,2,6.7,2
			c4.2,0,8.3,0,12.5,0c2.6,0,5.3,0,7.9,0C30,2,32.4,4.3,32.6,7.2c0.1,2.1,0,4.2,0,6.3c0,0.5-0.2,1-0.7,1.4c-0.5,0.5-1.3,0.6-2,0.3
			c-0.7-0.3-1.2-0.9-1.2-1.7c0-1.9,0-3.7,0-5.6c0.1-1.1-0.6-2-1.7-2.2c-0.2,0-0.3,0-0.5,0h-8.4c2,0.7,3.2,2.7,2.9,4.7
			c-0.1,9.1,0,18.2,0,27.3v0.6h5.5c1.1,0.1,2.1-0.6,2.2-1.7c0-0.2,0-0.3,0-0.5c0-2.4,0-4.7,0-7.1c0-0.3,0-0.5,0.1-0.8
			c0.2-0.9,1.1-1.5,2-1.4c1,0.1,1.7,0.9,1.7,1.9c0,2.6,0,5.1,0,7.7c0,3.2-2.5,5.8-5.7,5.8c-0.1,0-0.1,0-0.2,0c-1.7,0-3.5,0-5.2,0
			h-0.5c0,0.7,0,1.4,0,2.1c0,1.1-0.6,2.2-1.5,2.9C19.1,47.5,18.5,47.8,17.9,48"/>
		<path id="Trazado_102" class="st0" d="M36.5,19.3c0-1.9,0-3.7,0-5.5c0-0.2,0-0.5,0.1-0.7c0.2-1,1.2-1.7,2.3-1.4
			c0.3,0.1,0.6,0.2,0.8,0.4c0.1,0.1,0.2,0.2,0.3,0.3l7.3,7.3c0.8,0.7,1,1.9,0.3,2.7c-0.1,0.1-0.2,0.2-0.3,0.3
			c-2.5,2.5-4.9,4.9-7.4,7.4c-0.5,0.5-1.1,0.8-1.8,0.7c-0.9-0.2-1.6-1-1.6-2c0-1.7,0-3.4,0-5.1v-0.6h-0.6c-2.3,0-4.6,0-7,0
			c-1,0.1-1.8-0.6-2-1.5c-0.2-1,0.4-2,1.4-2.3c0.2,0,0.3-0.1,0.5-0.1c2.4,0,4.7,0,7.1,0L36.5,19.3"/>
	</g>
</g>
</svg>
