<?xml version="1.0" encoding="utf-8"?>
<!-- Generator: Adobe Illustrator 26.3.1, SVG Export Plug-In . SVG Version: 6.00 Build 0)  -->
<svg version="1.1" id="Layer_1" xmlns="http://www.w3.org/2000/svg" xmlns:xlink="http://www.w3.org/1999/xlink" x="0px" y="0px"
	 viewBox="0 0 172.1 90.8" style="enable-background:new 0 0 172.1 90.8;" xml:space="preserve">
<style type="text/css">
	.st0{clip-path:url(#SVGID_00000179645633492444184870000003261402038081758899_);}
	.st1{fill:#6F6F6E;}
	.st2{fill:#3B4591;}
	.st3{fill:#DC354B;}
</style>
<g id="Grupo_11">
	<g>
		<defs>
			<rect id="SVGID_1_" x="3.4" y="2.7" width="163.9" height="82.7"/>
		</defs>
		<clipPath id="SVGID_00000168833373214569919260000003613553161885968318_">
			<use xlink:href="#SVGID_1_"  style="overflow:visible;"/>
		</clipPath>
		<g id="Grupo_10" style="clip-path:url(#SVGID_00000168833373214569919260000003613553161885968318_);">
			<path id="Trazado_13" class="st1" d="M11.8,16.2H8V2.9h3.7c4.1,0,5.8,2.2,5.8,5.5v2.2C17.6,14,16,16.2,11.8,16.2 M15.9,8.4
				c0-3-1.4-4.1-4.3-4.1H9.7v10.4h1.9c2.9,0,4.3-1.1,4.3-4.1L15.9,8.4z"/>
			<path id="Trazado_14" class="st1" d="M20.1,16.2V2.9h7.9v1.5h-6.2v4.2h5.8V10h-5.8v4.7h6.2v1.4H20.1z"/>
			<path id="Trazado_15" class="st1" d="M37.7,16.2L33,6.6c-0.3-0.7-0.7-1.5-1.1-2.2h0C31.9,5.3,32,6.2,32,7.2v9h-1.5V2.9h2.4
				l4.6,9.3c0.3,0.6,0.8,1.6,1.1,2.3h0c-0.1-1.1-0.1-2.1-0.1-2.9V2.9H40v13.3H37.7z"/>
			<path id="Trazado_16" class="st1" d="M47.8,4.4v11.8h-1.6V4.4h-4.1V2.9h9.8v1.5H47.8z"/>
			<rect id="Rect치ngulo_9" x="53.9" y="2.9" class="st1" width="1.6" height="13.3"/>
			<path id="Trazado_17" class="st1" d="M60.2,4.4v4.2h5.8V10h-5.8v6.1h-1.6V2.9h7.9v1.5H60.2z"/>
			<rect id="Rect치ngulo_10" x="68.8" y="2.9" class="st1" width="1.6" height="13.3"/>
			<path id="Trazado_18" class="st1" d="M78.3,16.4c-3,0-5.4-1.1-5.4-5.8V8.4c0-4.7,2.3-5.7,5.4-5.7c1,0,2.1,0.1,3.1,0.3v1.3
				c-0.8-0.1-2.1-0.2-3.1-0.2c-2.5,0-3.7,1-3.7,4.3v2.2c0,3.3,1.2,4.3,3.7,4.3c1,0,2.2-0.1,3.1-0.2v1.3
				C80.3,16.3,79.3,16.4,78.3,16.4"/>
			<path id="Trazado_19" class="st1" d="M91.5,16.2l-1.4-4.3h-4.7L84,16.2h-1.7l4.3-13.3h2.3l4.3,13.3L91.5,16.2z M88.4,6.5
				C88.2,5.7,88,5,87.9,4.3h-0.2c-0.1,0.7-0.3,1.5-0.5,2.2l-1.3,3.9h3.8L88.4,6.5z"/>
			<path id="Trazado_20" class="st1" d="M99.6,16.4c-3,0-5.4-1.1-5.4-5.8V8.4c0-4.7,2.3-5.7,5.4-5.7c1,0,2.1,0.1,3.1,0.3v1.3
				c-0.8-0.1-2.1-0.2-3.1-0.2c-2.5,0-3.7,1-3.7,4.3v2.2c0,3.3,1.2,4.3,3.7,4.3c1,0,2.2-0.1,3.1-0.2v1.3
				C101.7,16.3,100.6,16.4,99.6,16.4"/>
			<rect id="Rect치ngulo_11" x="104.7" y="2.9" class="st1" width="1.6" height="13.3"/>
			<path id="Trazado_21" class="st1" d="M114,16.4c-3.3,0-5.1-2.1-5.1-5.9V8.6c0-3.8,1.8-5.9,5.1-5.9s5.1,2.1,5.1,5.9v1.9
				C119.1,14.3,117.3,16.4,114,16.4 M117.5,8.6c0-3.2-1.4-4.4-3.5-4.4s-3.5,1.2-3.5,4.4v1.9c0,3.2,1.4,4.5,3.5,4.5s3.5-1.2,3.5-4.5
				V8.6z"/>
			<path id="Trazado_22" class="st1" d="M128.8,16.2l-4.7-9.5c-0.3-0.7-0.7-1.5-1.1-2.2h0c0.1,0.9,0.1,1.8,0.1,2.8v9h-1.5V2.9h2.4
				l4.6,9.3c0.3,0.6,0.7,1.6,1.1,2.3h0c-0.1-1.1-0.1-2.1-0.1-2.9V2.9h1.6v13.3H128.8z"/>
			<path id="Trazado_23" class="st1" d="M134.2,16.2V2.9h7.9v1.5h-6.2v4.2h5.8V10h-5.8v4.7h6.2v1.4H134.2z"/>
			<path id="Trazado_24" class="st1" d="M148.1,16.4c-1.3,0-2.5-0.1-3.8-0.4v-1.3c1.3,0.2,2.5,0.2,3.8,0.2c1.8,0,2.7-0.6,2.7-2.2
				c0-1.1-0.4-1.7-1.8-2.3l-2.3-1C145,8.7,144,7.7,144,5.9c0-2.2,1.4-3.2,4.3-3.2c1.2,0,2.5,0.1,3.7,0.4v1.3
				c-1.2-0.1-2.4-0.2-3.6-0.2c-1.7,0-2.7,0.4-2.7,1.8c0,1,0.4,1.6,1.8,2.2l2.3,1c1.9,0.8,2.7,1.8,2.7,3.7
				C152.5,15.1,151,16.4,148.1,16.4"/>
			<path id="Trazado_25" class="st1" d="M3.4,37.6V24.3h7.9v1.5H5V30h5.8v1.5H5v4.7h6.2v1.4H3.4z"/>
			<path id="Trazado_26" class="st1" d="M21,37.6l-4.7-9.5c-0.3-0.7-0.7-1.5-1.1-2.2h0c0.1,0.9,0.1,1.8,0.1,2.8v9h-1.5V24.3h2.4
				l4.6,9.3c0.3,0.6,0.8,1.6,1.1,2.3h0c-0.1-1.1-0.1-2.1-0.1-2.9v-8.6h1.6v13.3L21,37.6z"/>
			<path id="Trazado_27" class="st2" d="M52.2,55.4c-1.4,0-2.3,0-4-0.1v14h-13V26.2c5.1-0.5,10.3-0.7,15.5-0.7
				c11.9,0,21.5,2.1,21.6,14.5v0.5C72.2,53.1,62.5,55.4,52.2,55.4 M59.1,40.1c0-4.3-2.4-5.1-7.4-5.1c-1.2,0-2.6,0-3.5,0.1v10.8h3.6
				c4.9,0,7.3-1.1,7.3-5.3L59.1,40.1z"/>
			<path id="Trazado_28" class="st2" d="M107.2,69.3H86L75.4,26.2h13.7L95.2,54c0.6,2.4,1,5.6,1.4,8h0.1c0.3-2.4,0.8-5.6,1.4-8
				l6.1-27.8h13.6L107.2,69.3z"/>
			<path id="Trazado_29" class="st2" d="M140.3,70.3c-13.5,0-20.3-4.8-20.3-20.6v-4.1c0-15.7,6.8-20.5,20.3-20.5
				c4.2,0.1,8.4,0.5,12.6,1.3v9.1c-3.1-0.2-7.2-0.5-10.9-0.5c-5.5,0-8.2,1.7-8.2,10.6v4.1c0,9,2.7,10.7,8.2,10.7
				c3.7,0,7.8-0.2,10.9-0.5v9C150.5,69.7,143.7,70.3,140.3,70.3"/>
			<path id="Trazado_30" class="st3" d="M157.9,85.4H35.1v-4h122.7c1.3-0.1,2.5-0.6,3.5-1.4c1.2-1.2,1.8-3,1.8-5.5V2.7h4.1v71.8
				c0,3.6-1,6.4-3.1,8.4C162.5,84.5,160.2,85.4,157.9,85.4"/>
		</g>
	</g>
	<rect id="Rect치ngulo_8" x="3.4" y="2.9" class="st1" width="1.6" height="13.3"/>
</g>
</svg>
