<?xml version="1.0" encoding="utf-8"?>
<!-- Generator: Adobe Illustrator 26.3.1, SVG Export Plug-In . SVG Version: 6.00 Build 0)  -->
<svg version="1.1" id="Layer_1" xmlns="http://www.w3.org/2000/svg" xmlns:xlink="http://www.w3.org/1999/xlink" x="0px" y="0px"
	 viewBox="0 0 37 34.1" style="enable-background:new 0 0 37 34.1;" xml:space="preserve">
<style type="text/css">
	.st0{fill:#FFFFFF;}
</style>
<g>
	<g id="Grupo_37">
		<path id="Trazado_91" class="st0" d="M0.5,3.3h3.4V0.5h3v2.7h20.4V0.5h3v2.7h3.4v3h-3.4c0,1.5,0,2.8,0,4.2
			c0.1,0.4-0.2,0.7-0.6,0.8c-0.8,0.3-1.6,0.6-2.5,1v-6H7v21.4h20.3c0-1,0-2,0-3c0.1-0.3,0.2-0.6,0.5-0.7c0.7-0.3,1.5-0.5,2.4-0.8
			v4.6h3.4v3h-3.4v2.8h-3v-2.8H7v2.8H4v-2.9H0.5v-2.9h3.4V6.2H0.5V3.3z"/>
		<path id="Trazado_92" class="st0" d="M8.6,14.1h2.2v4.8h3v1.7H8.6V14.1z"/>
		<path id="Trazado_93" class="st0" d="M14,17.3c0-2,1.6-3.4,3.7-3.4s3.7,1.4,3.7,3.4s-1.6,3.4-3.7,3.4S14,19.3,14,17.3 M19.2,17.3
			c-0.1-0.8-0.8-1.4-1.6-1.3c-0.8,0.1-1.4,0.8-1.3,1.6c0.1,0.7,0.7,1.3,1.5,1.3s1.5-0.7,1.5-1.5C19.2,17.4,19.2,17.4,19.2,17.3"/>
		<path id="Trazado_94" class="st0" d="M26.5,17.2h1.9V20c-0.9,0.5-1.8,0.8-2.9,0.8c-2.1,0-3.7-1.4-3.7-3.4s1.5-3.4,3.7-3.4
			c1.1-0.1,2.2,0.4,3,1.3l-1.4,1.2c-0.4-0.5-0.9-0.7-1.5-0.7c-0.9,0-1.6,0.8-1.6,1.7s0.7,1.6,1.6,1.6c0.3,0,0.5-0.1,0.8-0.2v-1.7
			H26.5z"/>
		<path id="Trazado_95" class="st0" d="M29.1,17.3c0-2,1.6-3.4,3.7-3.4s3.7,1.4,3.7,3.4s-1.6,3.4-3.7,3.4S29.1,19.3,29.1,17.3
			 M34.3,17.3c-0.1-0.8-0.8-1.4-1.6-1.3s-1.4,0.8-1.3,1.6c0.1,0.7,0.7,1.3,1.5,1.3s1.5-0.7,1.5-1.5C34.3,17.4,34.3,17.4,34.3,17.3"
			/>
	</g>
</g>
</svg>
