<?xml version="1.0" encoding="utf-8"?>
<!-- Generator: Adobe Illustrator 26.3.1, SVG Export Plug-In . SVG Version: 6.00 Build 0)  -->
<svg version="1.1" id="Layer_1" xmlns="http://www.w3.org/2000/svg" xmlns:xlink="http://www.w3.org/1999/xlink" x="0px" y="0px"
	 viewBox="0 0 172.1 51.9" style="enable-background:new 0 0 172.1 51.9;" xml:space="preserve">
<style type="text/css">
	.st0{fill:#3B4591;}
	.st1{fill:#DC354B;}
	.st2{fill:url(#SVGID_1_);}
	.st3{fill:url(#SVGID_00000159459344663419825190000013286258275657549975_);}
	.st4{fill:url(#SVGID_00000106107532844446273720000005768023306688154246_);}
	.st5{fill:url(#SVGID_00000025421781722319752070000004540879598743555461_);}
	.st6{fill:url(#SVGID_00000173870959905092075940000005738507952856868499_);}
	.st7{fill:url(#SVGID_00000106122806762930701910000009718155347593883047_);}
	.st8{fill:url(#SVGID_00000023988526326479087620000003453045419016361116_);}
	.st9{opacity:0.3;fill:url(#SVGID_00000018237266595506847470000010265309375634359703_);}
	.st10{fill:url(#SVGID_00000009560443830013440600000010696591750465819064_);}
	.st11{fill:url(#SVGID_00000104676718627681949370000013755009290036007326_);}
	.st12{opacity:0.6;fill:url(#SVGID_00000084521812830559839850000009866274122811871111_);}
	.st13{opacity:0.4;}
	.st14{opacity:0.6;fill:url(#SVGID_00000066486817544090096290000007305186509476161462_);}
	.st15{opacity:0.6;fill:url(#SVGID_00000031165709892354853890000016569961414992243097_);}
	.st16{opacity:0.2;fill:#1D1D1B;}
	.st17{opacity:0.3;fill:url(#SVGID_00000037658851984040166910000011287390519404874143_);}
	.st18{opacity:0.3;fill:url(#SVGID_00000171683757509258608530000007500329560008768189_);}
	.st19{opacity:0.5;fill:url(#SVGID_00000000933208132934427990000005089769548679241655_);}
	.st20{opacity:0.3;fill:#1D1D1B;}
	.st21{opacity:0.3;fill:url(#SVGID_00000065044338682087447980000014075363131145849779_);}
	.st22{opacity:0.3;fill:url(#SVGID_00000024695661199991423800000005145696624727349901_);}
	.st23{opacity:0.5;}
	.st24{opacity:0.2;}
</style>
<g>
	<g>
		<path class="st0" d="M116.3,35.2v0.6c0,0.6-0.4,1-1.2,1c-0.8,0-1.2-0.3-1.2-1v-0.6c0-0.6,0.4-1,1.2-1
			C115.8,34.2,116.3,34.5,116.3,35.2z"/>
		<path class="st0" d="M68.8,47.4l-3.3-7.3L64.1,37h0l0,3.2l-0.5,9c0,0.2-0.1,0.2-0.2,0.2H62c-0.1,0-0.2-0.1-0.2-0.2l0.6-14.1
			c0-0.2,0.1-0.2,0.2-0.2h2.4c0.1,0,0.2,0,0.2,0.2l3.9,8.8l3.8-8.8c0.1-0.1,0.1-0.2,0.2-0.2h2.4c0.1,0,0.2,0.1,0.2,0.2l0.6,14.1
			c0,0.1-0.1,0.2-0.2,0.2h-1.4c-0.1,0-0.2-0.1-0.2-0.2l-0.5-9l0.1-3.3h0l-1.4,3.3l-3.3,7.1c0,0.1-0.1,0.2-0.2,0.2h0
			C68.9,47.6,68.8,47.6,68.8,47.4z"/>
		<path class="st0" d="M101.3,45c0,2,0.8,2.9,2.6,2.9c1.4,0,2.2-0.5,2.2-1.4c0-0.2,0.1-0.2,0.2-0.2h1.4c0.1,0,0.2,0.1,0.2,0.2
			c0.1,1.9-1.5,3.1-4.2,3.1c-2.9,0-4.3-1.3-4.4-4v-3.1c0-2.8,1.6-4.3,4.4-4.3s4.4,1.5,4.4,4.2V44c0,0.1-0.1,0.2-0.2,0.2h-6.7V45z
			 M101.3,42.6h5.1c0-2-0.8-2.9-2.5-2.9C102.1,39.8,101.3,40.7,101.3,42.6z"/>
		<path class="st0" d="M127.5,42.1v7.2c0,0.1-0.1,0.2-0.2,0.2h-1.4c-0.1,0-0.2-0.1-0.2-0.2v-7.1c0-1.5-0.6-2.1-1.8-2.1
			c-1,0-1.9,0.5-3.3,1.8c-0.1,0.1-0.1,0.3-0.1,0.3v7.2c0,0.1-0.1,0.2-0.2,0.2h-1.4c-0.1,0-0.2-0.1-0.2-0.2v-7.9
			c0-0.8-0.1-1.9-0.2-2.4c0-0.2,0-0.3,0.2-0.3h1.4c0.2,0,0.2,0,0.2,0.2c0.1,0.3,0.1,0.9,0.2,1.4c1.4-1.3,2.5-1.9,3.9-1.9
			C126.4,38.4,127.5,39.6,127.5,42.1z"/>
		<path class="st0" d="M115.8,38.6h-0.2h-1.2h-0.2c-0.2,0-0.2,0.1-0.2,0.3c0.1,0.5,0.1,1.4,0.2,2.1v8.3c0,0.1,0.1,0.2,0.2,0.2h0h1.4
			c0.1,0,0.2-0.1,0.2-0.2V38.9C116,38.7,115.9,38.6,115.8,38.6z"/>
		<path class="st0" d="M150.5,34.9l-3.9,14.2c0,0.1-0.1,0.2-0.2,0.2h-2.1c-0.1,0-0.2-0.1-0.2-0.2l-2.4-8.2l-2.4,8.2
			c0,0.1-0.1,0.2-0.2,0.2h-2c-0.1,0-0.2-0.1-0.2-0.2l-4.1-14.2c0-0.2,0-0.2,0.2-0.2h1.5c0.1,0,0.2,0.1,0.2,0.2l3.5,12.3l2.8-9.3
			l-0.8-2.8c0-0.2,0-0.2,0.2-0.2h1.5c0.1,0,0.2,0.1,0.2,0.2l3.3,12.1l3.3-12.3c0-0.1,0.1-0.2,0.2-0.2h1.5
			C150.4,34.6,150.5,34.7,150.5,34.9z"/>
		<path class="st0" d="M152.8,45c0,2,0.8,2.9,2.6,2.9c1.4,0,2.2-0.5,2.2-1.4c0-0.2,0.1-0.2,0.2-0.2h1.4c0.1,0,0.2,0.1,0.2,0.2
			c0.1,1.9-1.5,3.1-4.2,3.1c-2.9,0-4.3-1.3-4.4-4v-3.1c0-2.8,1.6-4.3,4.4-4.3c2.9,0,4.4,1.5,4.4,4.2V44c0,0.1-0.1,0.2-0.2,0.2h-6.7
			V45z M152.8,42.6h5.1c0-2-0.8-2.9-2.5-2.9C153.6,39.8,152.8,40.7,152.8,42.6z"/>
		<path class="st0" d="M86.9,48.3c-0.9-0.4-1-1.1-1-1.3v-5.7c0-0.7-0.2-3.2-2.7-3.2c-2.1,0-4.4,1.3-5.1,1.7l-0.1,0c0,0,0,0,0,0
			c0,0.1,0,0.1,0.5,1.1c0.1,0.2,0.2,0.3,0.2,0.3c0,0,0.1,0.1,0.1,0.1c0,0,0,0,0.2-0.1c2.2-1.2,3.4-1.4,4.1-1.4c1,0,1.1,1,1.1,1.4
			v1.1c-0.5,0.1-1.3,0.2-2.6,0.4c-2.6,0.4-3.9,1.6-3.9,3.6c0,3,3.1,3,3.1,3c1.3,0,2.6-0.6,3.6-1.6c0.2,0.8,0.7,1.3,1.5,1.6
			c0,0,0,0,0,0c0,0,0.1,0,0.1,0l1-1C87,48.4,87,48.4,86.9,48.3C87,48.3,87,48.3,86.9,48.3z M84.1,44.1v1.9c0,0,0,0.1-0.1,0.2
			c-0.7,0.9-2.1,1.8-3.4,1.7c-0.2,0-1.3-0.1-1.3-1.4c0-0.9,0.3-1.7,2.3-2l0.7-0.1c0.7-0.1,1.2-0.2,1.6-0.3
			C84.1,44,84.1,44.1,84.1,44.1z"/>
		<g>
			<path class="st0" d="M98.3,48.3c-1-0.5-1-1.1-1-1.3l0-12.7c0-0.1-0.1-0.2-0.2-0.2h-1.4c-0.1,0-0.2,0.1-0.2,0.2v4.5
				c-0.7-0.4-2-0.7-3.1-0.7c-2.5,0-4,1.7-4,4.5v2.8c0,2.7,1.1,4.1,3.2,4.1c0.6,0,1.1-0.1,1.7-0.3c0.7-0.3,1.4-0.8,2.2-1.6
				c0,0.1,0.7,1.3,1.2,1.6c0.1,0.1,0.3,0.2,0.5,0.2c0,0,0,0,0,0c0,0,0.1,0,0.1,0l1.1-1C98.3,48.4,98.3,48.4,98.3,48.3
				C98.3,48.3,98.3,48.3,98.3,48.3z M95.3,46c-1.4,1.4-2.3,1.8-3.3,1.8c-1.2,0-1.8-0.8-1.8-2.4v-2.7c0-2,0.8-3,2.5-3
				c0.8,0,1.8,0.2,2.6,0.6c0.1,0,0.1,0.1,0.1,0.1v5.4C95.3,45.8,95.3,46,95.3,46z"/>
		</g>
		<path class="st0" d="M163.8,40.3c0,0-0.1,0-0.1,0v0.1C163.7,40.4,163.7,40.4,163.8,40.3z"/>
		<path class="st0" d="M163.7,45.9C163.7,46,163.7,46,163.7,45.9c0,0,0-0.1,0-0.1V45.9z"/>
		<path class="st0" d="M170.4,40.5c-0.4-1.6-1.5-2.4-3.1-2.4c-0.1,0-0.5,0-0.6,0c-1,0-2.3,0.3-3.1,0.7v-4.5c0-0.1-0.1-0.2-0.2-0.2h0
			H162h0c-0.1,0-0.2,0.1-0.2,0.2v12.9c0,0.3-0.2,0.8-1,1.1c0,0-0.1,0-0.1,0.1c0,0,0,0.1,0,0.1l1.1,1c0,0,0,0,0.1,0c0,0,0,0,0,0
			c0.2-0.1,0.9-0.5,1-0.8c0.3-0.5,0.7-1,0.7-1.1c0.8,0.8,1.5,1.3,2.2,1.6c0.3,0.1,0.7,0.2,1,0.3c0.2,0,0.4,0,0.6,0
			c2.1,0,3.2-1.4,3.2-4.1C170.7,45.4,170.6,41.1,170.4,40.5z M167,47.8c-0.2,0-0.4,0-0.5,0c-0.8-0.1-1.6-0.6-2.7-1.7c0,0,0,0,0,0
			c0,0-0.1-0.1-0.1-0.1v-0.1v-4.4v-0.9c0,0,0,0,0,0c0,0,0,0,0,0v-0.1c0,0,0.1,0,0.1,0c0,0,0,0,0,0c0.9-0.4,1.9-0.6,2.6-0.6
			c0.1,0,0.4,0,0.5,0c0.9,0,1.4,0.4,1.7,1.3c0.2,0.5,0.3,4.4,0.3,4.4C168.9,47,168.2,47.8,167,47.8z"/>
		<path class="st0" d="M163.7,40.5C163.7,40.5,163.7,40.5,163.7,40.5L163.7,40.5C163.7,40.5,163.7,40.5,163.7,40.5z"/>
		<path class="st0" d="M163.8,40.3C163.8,40.3,163.8,40.3,163.8,40.3C163.8,40.3,163.8,40.3,163.8,40.3z"/>
		<path class="st0" d="M163.8,46C163.8,46,163.8,46,163.8,46C163.8,46,163.8,46,163.8,46z"/>
	</g>
	<g>
		<g>
			<path class="st1" d="M64.4,2.5c1.7,0,1.8,1.4,1.8,2.6v3.5c0,1.3-0.1,2.6-1.8,2.6h-1.7V2.5H64.4z M63,11h1.3c1,0,1.5-0.6,1.5-2.3
				V5.2c0-1.7-0.4-2.3-1.4-2.3H63V11z"/>
			<path class="st1" d="M67.6,11.3V2.5l3.1,0v0.3l-2.7,0v3.7h2.3v0.3H68v4h2.7v0.3H67.6z"/>
			<path class="st1" d="M74.9,9.1c0,1.4-0.5,2.3-1.8,2.3c-1.7,0-1.8-1-1.8-2.3V8.8h0.4V9c0,1.4,0.2,2,1.4,2c1.1,0,1.4-0.8,1.4-1.9
				V9.1c0-1-0.4-1.5-1.1-1.9l-0.9-0.5c-0.8-0.4-1.2-1-1.2-2.2V4.4c0-1.2,0.6-2,1.8-2c1.3,0,1.8,0.9,1.8,2.1V5h-0.4l0-0.7
				c0-0.8-0.4-1.5-1.4-1.5c-1.1,0-1.4,0.9-1.4,1.8l0,0.2c0,0.8,0.5,1.3,1.1,1.6l0.9,0.5C74.5,7.4,74.8,8.1,74.9,9.1L74.9,9.1z"/>
			<path class="st1" d="M76.2,11.3V2.5h0.4v8.8H76.2z"/>
			<path class="st1" d="M79.8,7h1.9v1.8c0,1-0.1,2.5-1.8,2.5h0C78,11.4,78,9.9,78,8.7V5.1c0-1.2,0.1-2.7,1.8-2.7h0
				c1.8,0,1.8,1.5,1.8,2.5v0h-0.4v0c0-1.2-0.2-2.2-1.4-2.2c-1.3,0-1.4,1-1.4,2.4v3.5c0,1.3,0.1,2.4,1.4,2.4c1.2,0,1.4-0.9,1.4-2.2
				V7.4h-1.5V7z"/>
			<path class="st1" d="M83.1,11.3V2.5h0.8l2.4,8.5h0.1V2.5h0.4l0,8.8h-0.8l-2.4-8.5h-0.1v8.5H83.1z"/>
			<path class="st1" d="M64.4,12.9c1.7,0,1.8,1.4,1.8,2.6V19c0,1.3-0.1,2.6-1.8,2.6h-1.7v-8.8H64.4z M63,21.3h1.3
				c1,0,1.5-0.6,1.5-2.3v-3.5c0-1.7-0.4-2.3-1.4-2.3H63V21.3z"/>
			<path class="st1" d="M67.6,21.6v-8.8l3.1,0v0.3l-2.7,0v3.7h2.3v0.3H68v4h2.7v0.3H67.6z"/>
			<path class="st1" d="M75.4,12.8l-1.9,8.8h-0.7L71,12.8h0.4l1.8,8.5h0.1l1.8-8.5H75.4z"/>
			<path class="st1" d="M76.4,21.6v-8.8l3.1,0v0.3l-2.7,0v3.7H79v0.3h-2.3v4h2.7v0.3H76.4z"/>
			<path class="st1" d="M80.5,21.6v-8.8h0.4v8.4h2.6v0.4H80.5z"/>
			<path class="st1" d="M86.1,12.8c1.8,0,1.8,1.5,1.8,2.7V19c0,1.2-0.1,2.7-1.8,2.7h0c-1.8,0-1.8-1.5-1.8-2.7v-3.5
				C84.2,14.2,84.3,12.8,86.1,12.8L86.1,12.8z M86.1,13.1c-1.3,0-1.4,1-1.4,2.4V19c0,1.3,0.1,2.4,1.4,2.4h0c1.3,0,1.4-1,1.4-2.4
				v-3.5C87.5,14.2,87.4,13.1,86.1,13.1L86.1,13.1z"/>
			<path class="st1" d="M92.8,15.9c0,1.6-0.6,2-1.9,2h-1.2v3.7h-0.4v-8.8H91c1.1,0,1.8,0.5,1.8,2V15.9z M92.4,14.8
				c0-1.1-0.4-1.6-1.4-1.6h-1.3v4.4h1.2c1.1,0,1.5-0.4,1.5-1.7V14.8z"/>
			<path class="st1" d="M94.6,13.2L94.6,13.2l-0.1,8.5h-0.4v-8.8h0.7l1.8,6.9l1.8-6.9h0.8v8.8h-0.4v-8.5h-0.1l-1.8,7h-0.6L94.6,13.2
				z"/>
			<path class="st1" d="M100.9,21.6v-8.8l3.1,0v0.3l-2.7,0v3.7h2.3v0.3h-2.3v4h2.7v0.3H100.9z"/>
			<path class="st1" d="M105.1,21.6v-8.8h0.8l2.4,8.5h0.1v-8.5h0.4l0,8.8h-0.8l-2.4-8.5h-0.1v8.5H105.1z"/>
			<path class="st1" d="M111.6,13.2v8.4h-0.4v-8.4h-1.7v-0.3h3.8v0.3H111.6z"/>
			<path class="st1" d="M122.4,16.1l-1.4,3.1l2,2.3l-0.2,0.2l-1.9-2.2c-0.3,0.6-0.9,2.3-2.5,2.3c-1.3,0-2.2-1.2-2.2-2.5
				c0-1.5,1.2-2.3,2.1-2.7c-0.6-0.7-1.1-1.1-1.1-2.1c0-0.9,0.7-1.8,1.7-1.8c1,0,1.7,0.8,1.7,1.8c0,1-0.9,1.7-1.8,2.2l2,2.2l1.3-2.8
				H122.4z M118.5,16.9c-1.6,0.8-1.9,1.7-2,2.5c0,1.1,0.7,2.1,1.8,2.1c1.3,0,1.9-1.6,2.2-2.2L118.5,16.9z M118.9,13
				c-0.9,0-1.3,0.8-1.3,1.4c0,0.9,0.5,1.3,1,2c1.1-0.6,1.6-1.1,1.6-2C120.2,13.7,119.7,13,118.9,13L118.9,13z"/>
			<path class="st1" d="M65.8,32l-0.5-2.4h-2.6L62.2,32h-0.4l1.8-8.8h0.7l1.8,8.8H65.8z M62.8,29.3h2.4L64,23.5h-0.1L62.8,29.3z"/>
			<path class="st1" d="M68.8,23.2c1.7,0,1.8,1.4,1.8,2.6v3.5c0,1.3-0.1,2.6-1.8,2.6h-1.7v-8.8H68.8z M67.5,31.6h1.3
				c1,0,1.5-0.6,1.5-2.3v-3.5c0-1.7-0.4-2.3-1.4-2.3h-1.4V31.6z"/>
			<path class="st1" d="M75.7,23.2L73.9,32h-0.7l-1.9-8.8h0.4l1.8,8.5h0.1l1.8-8.5H75.7z"/>
			<path class="st1" d="M76.7,32v-8.8l3.1,0v0.3l-2.7,0v3.7h2.3v0.3h-2.3v4h2.7V32H76.7z"/>
			<path class="st1" d="M80.9,32v-8.8h1.7c1.3,0,1.8,0.6,1.8,2.2v0.8c0,0.9-0.4,1.6-1.3,1.8c0.6,0.4,0.9,0.9,1,1.7l0.2,1.3
				c0,0.3,0.1,0.7,0.3,0.9h-0.4c-0.1-0.3-0.2-0.6-0.2-0.9l-0.2-1.3c-0.1-1.1-0.8-1.6-1.3-1.6h-1.2V32H80.9z M84,25.4
				c0-1.8-0.6-1.9-1.4-1.9h-1.3v4.3h1.3c0.9,0,1.4-0.7,1.5-1.6V25.4z"/>
			<path class="st1" d="M87.1,23.5V32h-0.4v-8.4H85v-0.3h3.8v0.3H87.1z"/>
			<path class="st1" d="M89.8,32v-8.8h0.4V32H89.8z"/>
			<path class="st1" d="M95.1,29.8c0,1.4-0.5,2.3-1.8,2.3c-1.7,0-1.8-1-1.8-2.3v-0.2h0.4v0.2c0,1.4,0.2,2,1.4,2
				c1.1,0,1.4-0.8,1.4-1.9v-0.1c0-1-0.4-1.5-1.1-1.9l-0.9-0.5c-0.8-0.4-1.2-1-1.2-2.2v-0.1c0-1.2,0.6-2,1.8-2c1.3,0,1.8,0.9,1.8,2.1
				v0.5h-0.4l0-0.7c0-0.8-0.4-1.5-1.4-1.5c-1.1,0-1.4,0.9-1.4,1.8l0,0.2c0,0.8,0.5,1.3,1.1,1.6l0.9,0.5C94.7,28.1,95,28.8,95.1,29.8
				L95.1,29.8z"/>
			<path class="st1" d="M96.3,32v-8.8h0.4V32H96.3z"/>
			<path class="st1" d="M98.5,32v-8.8h0.8l2.4,8.5h0.1v-8.5h0.4l0,8.8h-0.8L99,23.5h-0.1V32H98.5z"/>
			<path class="st1" d="M105.2,27.7h1.9v1.8c0,1-0.1,2.5-1.8,2.5h0c-1.8,0-1.8-1.5-1.8-2.7v-3.5c0-1.2,0.1-2.7,1.8-2.7h0
				c1.8,0,1.8,1.5,1.8,2.5v0h-0.4v0c0-1.2-0.2-2.2-1.4-2.2c-1.3,0-1.4,1-1.4,2.4v3.5c0,1.3,0.1,2.4,1.4,2.4c1.2,0,1.4-0.9,1.4-2.2
				v-1.5h-1.5V27.7z"/>
		</g>
	</g>
	<g>
		
			<linearGradient id="SVGID_1_" gradientUnits="userSpaceOnUse" x1="-10073.9541" y1="659.1246" x2="-10110.4365" y2="716.8734" gradientTransform="matrix(1 0 0 -1 10093.7891 705.3521)">
			<stop  offset="4.982462e-04" style="stop-color:#EB6160"/>
			<stop  offset="0.3613" style="stop-color:#5E2842"/>
			<stop  offset="0.7306" style="stop-color:#88386F"/>
		</linearGradient>
		<path class="st2" d="M15.6,48.4l5.3-10.7l-7.1-11.5l-5.9,9.5c-0.3,0.4-0.7,0.4-1,0l7.7,12.7c0.3,0.4,0.9,0.8,1.4,0.8h0
			C15.6,49.2,15.3,48.8,15.6,48.4z"/>
		
			<linearGradient id="SVGID_00000134235408018055292730000012009551155543482791_" gradientUnits="userSpaceOnUse" x1="82.7514" y1="18.1365" x2="15.3824" y2="45.7732">
			<stop  offset="0.2913" style="stop-color:#E4836E"/>
			<stop  offset="0.549" style="stop-color:#D5354A"/>
			<stop  offset="0.7684" style="stop-color:#5E2842"/>
		</linearGradient>
		<path style="fill:url(#SVGID_00000134235408018055292730000012009551155543482791_);" d="M57.2,25.6l-5.4-8.9c0,0,0-0.1-0.1-0.1
			c-0.3-0.3-0.6-0.3-0.9,0.1l-5.9,9.5l-7.1,11.5l5.3,10.7c0.2,0.5,0,0.8-0.5,0.8c0.5,0,1.1-0.4,1.4-0.8l13.1-21.3
			C57.4,26.7,57.4,26,57.2,25.6z"/>
		
			<linearGradient id="SVGID_00000013162632652739352790000013665944195217753531_" gradientUnits="userSpaceOnUse" x1="28.8906" y1="32.7546" x2="41.8537" y2="58.5862">
			<stop  offset="0" style="stop-color:#AA3448"/>
			<stop  offset="0.5392" style="stop-color:#C52D51"/>
			<stop  offset="1" style="stop-color:#FFF8C3"/>
		</linearGradient>
		<path style="fill:url(#SVGID_00000013162632652739352790000013665944195217753531_);" d="M43.1,48.4l-5.3-10.7l-1.9-3.9
			c-0.2-0.5-0.8-0.8-1.3-0.8c0.5,0,0.7,0.4,0.5,0.8l-5.7,12.6l1,2c0.2,0.4,0.8,0.8,1.3,0.8c0,0,0,0,0,0h11
			C43.1,49.2,43.3,48.8,43.1,48.4z"/>
		
			<linearGradient id="SVGID_00000062192382582595302500000010732183075986013083_" gradientUnits="userSpaceOnUse" x1="32.9646" y1="22.4848" x2="18.4878" y2="57.8082">
			<stop  offset="4.982462e-04" style="stop-color:#E47675"/>
			<stop  offset="0.3314" style="stop-color:#812435"/>
			<stop  offset="0.8075" style="stop-color:#CC2F52"/>
		</linearGradient>
		<path style="fill:url(#SVGID_00000062192382582595302500000010732183075986013083_);" d="M34.6,33H24.1c-0.3,0-0.7,0.2-1,0.4
			c-0.1,0.1-0.3,0.3-0.3,0.4l-1.9,3.9l-5.3,10.7c-0.2,0.5,0,0.8,0.5,0.8h0h11h0.1c0.5,0,1.1-0.4,1.3-0.8l0.9-2l5.7-12.6
			C35.3,33.4,35.1,33,34.6,33z"/>
		
			<linearGradient id="SVGID_00000161607486739545521750000003846711104980126358_" gradientUnits="userSpaceOnUse" x1="2022.8109" y1="1.52" x2="2000.2496" y2="37.2324" gradientTransform="matrix(-1 0 0 1 2058.6895 0)">
			<stop  offset="0.415" style="stop-color:#203076"/>
			<stop  offset="0.9995" style="stop-color:#471052"/>
		</linearGradient>
		<path style="fill:url(#SVGID_00000161607486739545521750000003846711104980126358_);" d="M44,4c-0.3-0.4-0.9-0.8-1.4-0.8h0
			c0.5,0,0.7,0.4,0.5,0.8l-5.3,10.7l7.1,11.5l5.9-9.5c0.2-0.4,0.6-0.4,0.9-0.1L44,4z"/>
		
			<linearGradient id="SVGID_00000085943747773850525490000017876884261889977753_" gradientUnits="userSpaceOnUse" x1="42.2838" y1="-4.6137" x2="-21.5557" y2="45.6929">
			<stop  offset="0.267" style="stop-color:#182158"/>
			<stop  offset="0.5941" style="stop-color:#243888"/>
			<stop  offset="0.9188" style="stop-color:#5D6AA9"/>
		</linearGradient>
		<path style="fill:url(#SVGID_00000085943747773850525490000017876884261889977753_);" d="M16.1,3.2c-0.5,0-1.1,0.4-1.4,0.8
			L1.5,25.3c-0.1,0.2-0.2,0.5-0.2,0.8c0,0.3,0.1,0.6,0.2,0.8l5.4,8.9c0.3,0.4,0.7,0.4,1,0l5.9-9.5l7.1-11.5L15.5,4
			C15.3,3.6,15.5,3.2,16.1,3.2z"/>
		
			<linearGradient id="SVGID_00000068645252945891333940000006606849435457538715_" gradientUnits="userSpaceOnUse" x1="18.0619" y1="-3.676" x2="37.3856" y2="34.8304">
			<stop  offset="0.1055" style="stop-color:#151A4A"/>
			<stop  offset="0.3466" style="stop-color:#243888"/>
			<stop  offset="0.7184" style="stop-color:#7ABAE7"/>
		</linearGradient>
		<path style="fill:url(#SVGID_00000068645252945891333940000006606849435457538715_);" d="M23.6,18.6L29.3,6l-1-2
			c-0.2-0.5-0.8-0.8-1.3-0.8h0h-11c-0.5,0-0.7,0.4-0.5,0.8l5.3,10.7l1.9,3.9c0.2,0.5,0.8,0.8,1.3,0.8C23.6,19.4,23.4,19,23.6,18.6z"
			/>
		
			<linearGradient id="SVGID_00000036234618634246283860000001634416236933818034_" gradientUnits="userSpaceOnUse" x1="15.3743" y1="11.3028" x2="26.8148" y2="11.3028">
			<stop  offset="0" style="stop-color:#2580C3;stop-opacity:0"/>
			<stop  offset="1" style="stop-color:#2580C3"/>
		</linearGradient>
		<path style="opacity:0.3;fill:url(#SVGID_00000036234618634246283860000001634416236933818034_);" d="M23.5,18.6L23.5,18.6
			L23.5,18.6L23.5,18.6C23.5,18.6,23.5,18.6,23.5,18.6L23.5,18.6l2.9-8l0,0l-4.9-7.4H16c-0.4,0-0.7,0.3-0.6,0.6l7.3,14.8
			c0.1,0.2,0.3,0.4,0.5,0.5l0,0c0,0,0,0,0,0h0c0.2,0.2,0.5,0.3,0.8,0.3C23.5,19.4,23.3,19,23.5,18.6z"/>
		
			<linearGradient id="SVGID_00000122711992636711758860000016119274638891825050_" gradientUnits="userSpaceOnUse" x1="44.936" y1="-17.0075" x2="26.0868" y2="28.9847">
			<stop  offset="0.4886" style="stop-color:#1E337B"/>
			<stop  offset="1" style="stop-color:#1A245D"/>
		</linearGradient>
		<path style="fill:url(#SVGID_00000122711992636711758860000016119274638891825050_);" d="M42.6,3.2L42.6,3.2h-11h-0.1
			c-0.5,0-1.1,0.4-1.3,0.8l-0.9,2l-5.7,12.6c-0.2,0.5,0,0.8,0.5,0.8h10.4c0.3,0,0.7-0.2,1-0.4c0.1-0.1,0.3-0.3,0.3-0.4l1.9-3.9
			L43.1,4C43.3,3.6,43.1,3.2,42.6,3.2z"/>
		
			<linearGradient id="SVGID_00000181088323061336502850000016801972203675562638_" gradientUnits="userSpaceOnUse" x1="28.6276" y1="2.5637" x2="25.4843" y2="3.8531">
			<stop  offset="1.120057e-02" style="stop-color:#182158"/>
			<stop  offset="0.3123" style="stop-color:#243888"/>
		</linearGradient>
		<polygon style="fill:url(#SVGID_00000181088323061336502850000016801972203675562638_);" points="27.1,3.2 27.1,3.2 27.1,3.2 		
			"/>
		
			<linearGradient id="SVGID_00000085944076130014898720000016799403491007393920_" gradientUnits="userSpaceOnUse" x1="1589.0211" y1="17.3107" x2="1580.8051" y2="41.481" gradientTransform="matrix(-1 0 0 1 1630.163 0)">
			<stop  offset="0.1333" style="stop-color:#FFFFFF"/>
			<stop  offset="1" style="stop-color:#FFFFFF;stop-opacity:0"/>
		</linearGradient>
		<path style="opacity:0.6;fill:url(#SVGID_00000085944076130014898720000016799403491007393920_);" d="M50.8,16.7l-5.9,9.5
			l-7.1,11.5l3.7,5.8l9.6-27.1C51,16.5,50.9,16.5,50.8,16.7z"/>
		<path class="st13" d="M35.9,33.8c-0.1-0.2-0.3-0.4-0.5-0.5c-0.2-0.2-0.5-0.3-0.8-0.3c0.5,0,0.7,0.4,0.5,0.8l-5.7,12.5h0h0l6.8-12
			L35.9,33.8z"/>
		
			<linearGradient id="SVGID_00000082366414208843236400000012976080786775529099_" gradientUnits="userSpaceOnUse" x1="1546.0594" y1="29.6827" x2="1541.0898" y2="44.3025" gradientTransform="matrix(-1 0 0 1 1575.3792 0)">
			<stop  offset="0.1333" style="stop-color:#FFFFFF"/>
			<stop  offset="1" style="stop-color:#FFFFFF;stop-opacity:0"/>
		</linearGradient>
		<polygon style="opacity:0.6;fill:url(#SVGID_00000082366414208843236400000012976080786775529099_);" points="36.1,34.4 
			29.3,46.4 29.3,46.4 29.3,46.4 30,47.7 32.9,46.9 37.5,37.2 		"/>
		
			<linearGradient id="SVGID_00000141423750860142572980000006625918195813780141_" gradientUnits="userSpaceOnUse" x1="20.2904" y1="9.1181" x2="36.5927" y2="18.3563">
			<stop  offset="0.3635" style="stop-color:#FFFFFF"/>
			<stop  offset="1" style="stop-color:#FFFFFF;stop-opacity:0"/>
		</linearGradient>
		<path style="opacity:0.6;fill:url(#SVGID_00000141423750860142572980000006625918195813780141_);" d="M29.3,6l-5.7,12.6
			c-0.2,0.5,0,0.8,0.5,0.8h10.4c0.3,0,0.7-0.2,1-0.4c0-0.2-0.1-0.5-0.3-0.7L29.3,6z"/>
		<path class="st16" d="M46.7,8.4l-2.8-4.6c-0.1-0.1-0.3-0.3-0.5-0.4L43.1,4c0,0,0,0,0,0l-5.3,10.6l5.7-9L46.7,8.4z"/>
		
			<linearGradient id="SVGID_00000125560580505648555850000001622874686574503297_" gradientUnits="userSpaceOnUse" x1="42.9403" y1="2.8907" x2="43.1044" y2="4.2145">
			<stop  offset="0" style="stop-color:#2580C3;stop-opacity:0"/>
			<stop  offset="1" style="stop-color:#2580C3"/>
		</linearGradient>
		<path style="opacity:0.3;fill:url(#SVGID_00000125560580505648555850000001622874686574503297_);" d="M43.1,4.1l0.3-0.7
			c-0.2-0.1-0.6-0.2-0.8-0.2h0c0.4,0,0.7,0.3,0.6,0.7c0,0,0,0,0,0C43.1,3.9,43.1,4,43.1,4.1L43.1,4.1C43.1,4.1,43.1,4.1,43.1,4.1z"
			/>
		
			<linearGradient id="SVGID_00000104681666801573240070000008110716157187301280_" gradientUnits="userSpaceOnUse" x1="40.1842" y1="0.3208" x2="42.0399" y2="15.2945">
			<stop  offset="0" style="stop-color:#2580C3;stop-opacity:0"/>
			<stop  offset="1" style="stop-color:#2580C3"/>
		</linearGradient>
		<polygon style="opacity:0.3;fill:url(#SVGID_00000104681666801573240070000008110716157187301280_);" points="44.1,6.1 43.5,5.6 
			37.8,14.7 40.3,18.7 44.9,26.2 44.9,26.2 47,21.8 		"/>
		<path class="st16" d="M51.3,15.9L51.3,15.9l-0.8-1.3l0,0l-5.6,11.5l0,0l5.9-9.5c0.2-0.4,0.6-0.4,0.9-0.1L51.3,15.9z"/>
		
			<linearGradient id="SVGID_00000123403017404431057890000002498301473282823858_" gradientUnits="userSpaceOnUse" x1="29.2755" y1="29.2292" x2="22.5818" y2="48.9212">
			<stop  offset="0.1333" style="stop-color:#FFFFFF"/>
			<stop  offset="1" style="stop-color:#FFFFFF;stop-opacity:0"/>
		</linearGradient>
		<path style="opacity:0.5;fill:url(#SVGID_00000123403017404431057890000002498301473282823858_);" d="M34.5,33H24.1
			c-0.3,0-0.7,0.2-1,0.4c-0.1,0.1-0.3,0.3-0.3,0.4l-7.2,14.5c-0.1,0.2-0.1,0.4,0,0.5l19.6-15.6C35,33.1,34.8,33,34.5,33z"/>
		<path class="st20" d="M23.6,18.6L29.3,6h0l-0.7-1.4L23.6,18.6C23.6,18.6,23.6,18.6,23.6,18.6z"/>
		<path class="st16" d="M20.9,14.7c0,0-5.3-10.7-5.3-10.7c0,0,3.9,12.9,3.9,12.9L20.9,14.7L20.9,14.7z"/>
		
			<linearGradient id="SVGID_00000026858557594761865100000001838311676624935044_" gradientUnits="userSpaceOnUse" x1="4.8281" y1="19.6109" x2="19.4706" y2="19.6109">
			<stop  offset="0" style="stop-color:#2580C3;stop-opacity:0"/>
			<stop  offset="1" style="stop-color:#2580C3"/>
		</linearGradient>
		<path style="opacity:0.3;fill:url(#SVGID_00000026858557594761865100000001838311676624935044_);" d="M15.4,3.7L15.4,3.7L15.4,3.7
			c0,0,0-0.1,0-0.1c0,0,0,0,0-0.1c0,0,0-0.1,0-0.1c0,0,0.1-0.1,0.1-0.1c0,0,0,0,0.1,0c0,0,0.1,0,0.1,0c0,0,0,0,0.1,0
			c0.1,0,0.1,0,0.2,0c-0.1,0-0.1,0-0.2,0c-0.2,0-0.4,0.1-0.5,0.2l0,0c0,0,0,0,0,0c0,0,0,0,0,0l0,0c0,0,0,0,0,0c0,0,0,0,0,0
			c-0.1,0-0.2,0.1-0.2,0.1c0,0,0,0,0,0l0,0L4.8,32.3l0.6,1l1.5,2.4c0.3,0.4,0.7,0.4,1,0l11.6-18.7L15.4,3.7z"/>
		<path class="st13" d="M37.9,37.8L37.9,37.8L37.9,37.8L37.9,37.8l5.3,10.6c0.2,0.5,0,0.8-0.5,0.8c0.3,0,0.5-0.1,0.8-0.2
			c0.2-0.1,0.5-0.3,0.6-0.5l0.3-0.5L37.9,37.8z"/>
		
			<linearGradient id="SVGID_00000058559264209289885640000007002905314847717258_" gradientUnits="userSpaceOnUse" x1="20.8757" y1="19.3835" x2="12.2928" y2="44.6332">
			<stop  offset="0.1333" style="stop-color:#FFFFFF"/>
			<stop  offset="1" style="stop-color:#FFFFFF;stop-opacity:0"/>
		</linearGradient>
		<path style="opacity:0.3;fill:url(#SVGID_00000058559264209289885640000007002905314847717258_);" d="M15.6,48.4
			c-0.2,0.5,4.7-11.7,4.7-11.7l0,0l-5.5-8.9c0,0-1.7,2-3.4,3.9L15,48.8c0.3,0.2,0.7,0.4,1,0.4h0C15.6,49.2,15.3,48.8,15.6,48.4z"/>
		<path class="st23" d="M20.8,37.7l-0.6-1l0,0c0,0-4.9,12.2-4.7,11.7L20.8,37.7L20.8,37.7z"/>
		<path class="st24" d="M13.8,26.2L13.8,26.2L13.8,26.2l-5.9,9.5c0,0,6.8-7.9,6.9-7.9c0,0,0,0,0,0L13.8,26.2z"/>
	</g>
</g>
</svg>
