<?xml version="1.0" encoding="utf-8"?>
<!-- Generator: Adobe Illustrator 26.3.1, SVG Export Plug-In . SVG Version: 6.00 Build 0)  -->
<svg version="1.1" id="Layer_1" xmlns="http://www.w3.org/2000/svg" xmlns:xlink="http://www.w3.org/1999/xlink" x="0px" y="0px"
	 viewBox="0 0 26.7 34.1" style="enable-background:new 0 0 26.7 34.1;" xml:space="preserve">
<style type="text/css">
	.st0{fill:#FFFFFF;}
</style>
<g>
	<g id="Grupo_35">
		<path id="Trazado_89" class="st0" d="M23,33.6l-3.2-3.2l-3.2,3.2l-3.2-3.3l-3.2,3.2L7,30.3l-3.3,3.3c-0.3-0.3-0.6-0.6-0.9-0.9
			c-0.7-0.7-1.4-1.4-2.1-2.2c-0.2-0.1-0.2-0.3-0.2-0.6c0-8.6,0-17.3,0-25.9c0-0.1,0-0.3,0.1-0.4c1-1,2-2,3-3c0,0,0.1,0,0.1-0.1
			l3.1,3.2L10,0.5l3.2,3.3l3.2-3.3l3.2,3.3L23,0.5c0.2,0.2,0.3,0.4,0.5,0.5c0.8,0.8,1.7,1.7,2.5,2.5c0.1,0.1,0.2,0.3,0.2,0.5
			c0,8.7,0,17.4,0,26c0,0.1,0,0.3-0.1,0.4C25.1,31.5,24.1,32.5,23,33.6 M3.7,3.5C3.4,3.8,3.2,4.1,2.9,4.4C2.7,4.5,2.6,4.7,2.6,5
			c0,1.7,0,3.4,0,5.1c0,6.4,0,12.8,0,19.1c0,0.1,0,0.2,0.1,0.3c0.3,0.4,0.7,0.7,1,1.1L7,27.3l3.2,3.3l3.2-3.3l3.2,3.3l3.2-3.2
			l3.2,3.3c0.1-0.1,0.2-0.3,0.3-0.4c0.5-0.4,0.8-1.1,0.7-1.8c0-7.8,0-15.7,0-23.5c0-0.1,0-0.3-0.1-0.3c-0.3-0.4-0.7-0.7-1.1-1.1
			l-3.2,3.2l-3.2-3.2l-3.2,3.3L10,3.7L6.9,6.8L3.7,3.5"/>
		<path id="Trazado_90" class="st0" d="M10.1,9.4c0.4,0,0.7,0,1.1,0c0.1,0,0.2,0.1,0.2,0.2c0,0.2,0,0.4,0,0.6l2.5,0.6l-0.7,1.8
			c-0.6-0.2-1.2-0.3-1.9-0.5c-0.3,0-0.6-0.1-0.9,0c-0.3,0-0.5,0.2-0.5,0.4s0.1,0.4,0.3,0.5c0.4,0.2,0.8,0.3,1.2,0.5
			c0.5,0.2,1.1,0.5,1.6,0.8c1.1,0.7,1.3,2.2,0.6,3.2c-0.2,0.3-0.5,0.6-0.9,0.8c-0.4,0.2-0.9,0.3-1.3,0.5v1.1h-1.3v-1.1
			c-0.4-0.1-0.9-0.1-1.3-0.2c-0.4-0.1-0.8-0.2-1.1-0.4c-0.1-0.1-0.2-0.2-0.2-0.3c0-0.6,0-1.2,0-1.8c0.6,0.2,1.2,0.5,1.8,0.6
			c0.5,0.1,1.1,0.2,1.6,0.2c0.1,0,0.2,0,0.3,0c0.2-0.1,0.4-0.2,0.5-0.4c0-0.2-0.1-0.5-0.3-0.5c-0.3-0.1-0.6-0.3-0.9-0.4
			c-0.6-0.2-1.1-0.4-1.7-0.7c-1.1-0.6-1.4-1.5-1.2-2.7c0.1-0.6,0.5-1.2,1.1-1.4c0.4-0.2,0.8-0.3,1.2-0.3c0.3,0,0.4-0.1,0.3-0.4
			C10.1,9.8,10.1,9.7,10.1,9.4"/>
		<rect id="Rect치ngulo_83" x="7" y="22.4" class="st0" width="12.8" height="2.1"/>
		<rect id="Rect치ngulo_84" x="15.5" y="9.6" class="st0" width="4.2" height="2.1"/>
		<rect id="Rect치ngulo_85" x="15.5" y="13.9" class="st0" width="4.2" height="2.1"/>
		<rect id="Rect치ngulo_86" x="15.5" y="18.1" class="st0" width="4.2" height="2.1"/>
	</g>
</g>
</svg>
