<?xml version="1.0" encoding="utf-8"?>
<!-- Generator: Adobe Illustrator 26.3.1, SVG Export Plug-In . SVG Version: 6.00 Build 0)  -->
<svg version="1.1" id="Layer_1" xmlns="http://www.w3.org/2000/svg" xmlns:xlink="http://www.w3.org/1999/xlink" x="0px" y="0px"
	 viewBox="0 0 36.3 36.1" style="enable-background:new 0 0 36.3 36.1;" xml:space="preserve">
<style type="text/css">
	.st0{fill:#DC354B;}
</style>
<g>
	<g id="Grupo_27">
		<path id="Trazado_81" class="st0" d="M18.8,0.4c0.6,0.1,1.2,0.1,1.8,0.2c2,0.3,4,0.9,5.8,1.9c2.7,1.4,5,3.6,6.6,6.2
			c0.8,1.2,1.4,2.5,1.8,3.9c-0.1,0-0.2,0-0.3,0c-0.7,0-1.4,0-2.2,0c-0.2,0-0.4-0.1-0.5-0.3c-0.4-0.7-0.8-1.5-1.1-2.2
			c-0.1-0.2-0.3-0.3-0.5-0.2c-0.6,0-1.2,0-1.9,0h-0.6l0.6,2.7c-0.9,0-1.8,0-2.6,0c-0.1,0-0.2-0.2-0.2-0.3c-0.2-0.7-0.4-1.4-0.6-2
			c-0.1-0.3-0.2-0.4-0.5-0.4c-4,0-8.1,0-12.1,0c-0.3,0-0.8-0.1-1,0.1c-0.2,0.2-0.2,0.6-0.3,0.9c-0.1,0.5-0.3,0.9-0.4,1.4
			c-0.1,0.2-0.1,0.3-0.4,0.3c-0.8,0-1.6,0-2.3,0c0,0-0.1,0-0.1,0L8.4,10c-0.1,0-0.1,0-0.2,0c-0.8,0-1.6,0-2.5,0
			c-0.1,0-0.2,0.1-0.2,0.2c-0.4,0.7-0.8,1.5-1.2,2.2c-0.1,0.2-0.2,0.3-0.4,0.3c-0.8,0-1.7,0-2.6,0c0.2-0.4,0.3-0.9,0.5-1.3
			c1.8-4.3,5.1-7.7,9.4-9.5C13,1.1,15,0.6,17.1,0.5c0.1,0,0.2,0,0.3-0.1H18.8z M12.6,7.2h11c-0.8-1.4-1.9-2.6-3.3-3.5
			c-1-0.6-2.2-0.8-3.3-0.4C15.1,4,13.5,5.4,12.6,7.2 M7.9,7.1L8,7.2c0.5,0,0.9,0,1.4,0c0.1,0,0.1,0,0.2-0.1c0.3-0.6,0.7-1.2,1-1.9
			l-0.1-0.1L7.9,7.1 M28.2,7.2c-0.7-0.8-1.6-1.5-2.5-2c0.3,0.6,0.6,1.2,0.9,1.8c0,0.1,0.1,0.1,0.2,0.2C27.3,7.2,27.7,7.2,28.2,7.2"
			/>
		<path id="Trazado_82" class="st0" d="M17.4,35.7c-0.6-0.1-1.2-0.1-1.8-0.2c-2.1-0.3-4.1-0.9-5.9-1.9c-2.3-1.2-4.2-3-5.8-5
			c-1.1-1.5-2-3.2-2.5-5h0.5c0.7,0,1.4,0,2,0c0.2,0,0.4,0.1,0.4,0.3c0.4,0.8,0.8,1.5,1.2,2.3c0.1,0.2,0.2,0.2,0.4,0.2
			c0.6,0,1.3,0,1.9,0h0.6l-0.7-2.7c0.9,0,1.8,0,2.6,0c0.1,0,0.2,0.2,0.2,0.3c0.2,0.7,0.4,1.4,0.6,2.1c0.1,0.3,0.2,0.3,0.5,0.3
			c4.3,0,8.6,0,12.9,0c0.2,0,0.4-0.1,0.4-0.3c0,0,0,0,0,0c0.2-0.7,0.4-1.4,0.6-2.1c0.1-0.2,0.1-0.3,0.4-0.3c0.8,0,1.6,0,2.5,0
			l-0.6,2.7c0.1,0,0.1,0,0.2,0c0.8,0,1.6,0,2.5,0c0.1,0,0.2-0.1,0.2-0.2c0.4-0.7,0.8-1.5,1.2-2.2c0.1-0.2,0.2-0.3,0.4-0.3
			c0.8,0,1.7,0,2.6,0c-0.2,0.5-0.3,0.9-0.5,1.3c-1.9,4.7-5.8,8.3-10.6,9.9c-1.5,0.5-3,0.8-4.6,0.9c-0.1,0-0.3,0-0.4,0.1L17.4,35.7z
			 M12.6,28.9c0,0.1,0,0.1,0,0.2c0.7,1.3,1.7,2.4,3,3.2c1.3,0.8,2.9,0.9,4.2,0.3c1.3-0.7,2.4-1.7,3.2-2.9c0.1-0.2,0.3-0.4,0.4-0.7
			L12.6,28.9z M28.2,29l-0.1-0.1c-0.5,0-0.9,0-1.4,0c-0.1,0-0.1,0-0.1,0.1c-0.3,0.6-0.7,1.3-1,1.9l0.1,0.1L28.2,29 M8,28.9L7.9,29
			l2.6,1.9l0.1-0.1c-0.3-0.6-0.7-1.2-1-1.8c0-0.1-0.1-0.1-0.2-0.1C8.9,28.9,8.5,28.9,8,28.9"/>
		<path id="Trazado_83" class="st0" d="M18.1,17.6c-0.5,1-0.9,1.9-1.3,2.8c-0.1,0.3-0.4,0.5-0.8,0.5c-1.4,0-1.1,0.2-1.6-1
			c-0.6-1.4-1.1-2.7-1.7-4.1c-0.2-0.5-0.1-0.6,0.4-0.6c0.3,0,0.7,0,1,0c0.3,0,0.5,0.1,0.5,0.4c0.3,0.9,0.6,1.8,1,2.7
			c0,0.1,0.1,0.2,0.1,0.3l0.7-1.6c0.2-0.5,0.4-1,0.6-1.5c0.1-0.2,0.3-0.4,0.5-0.3h0.1c1.3,0,1.1-0.2,1.6,1c0.3,0.7,0.6,1.4,0.9,2.2
			c0,0.1,0.1,0.1,0.1,0.2c0.4-1,0.8-1.9,1.1-2.9c0.1-0.3,0.4-0.5,0.7-0.5c0.3,0,0.7,0,1,0s0.4,0.2,0.3,0.5c-0.7,1.6-1.4,3.3-2.2,4.9
			c-0.1,0.2-0.3,0.3-0.5,0.3c-0.3,0-0.6,0-0.9,0c-0.3,0-0.5-0.1-0.6-0.4C19,19.6,18.6,18.7,18.1,17.6"/>
		<path id="Trazado_84" class="st0" d="M6,17.6c-0.5,1-0.9,1.9-1.3,2.9C4.6,20.8,4.4,21,4.1,21c-1.5,0-1.1,0.2-1.7-1.1
			s-1.1-2.7-1.7-4c-0.2-0.4-0.1-0.6,0.4-0.6c0.3,0,0.7,0,1,0c0.3,0,0.5,0.1,0.6,0.4c0.3,0.9,0.6,1.8,0.9,2.7c0,0.1,0.1,0.2,0.1,0.4
			c0.4-1,0.9-1.9,1.2-2.8c0.1-0.4,0.5-0.7,0.9-0.6c1,0,0.9-0.1,1.3,0.9c0.3,0.8,0.7,1.6,1.1,2.5c0.1-0.1,0.1-0.2,0.1-0.3
			c0.3-0.9,0.7-1.8,1-2.7c0.1-0.3,0.3-0.4,0.6-0.4c0.3,0,0.7,0,1,0c0.4,0,0.6,0.2,0.4,0.6c-0.5,1.2-1,2.3-1.6,3.5
			c-0.2,0.4-0.4,0.8-0.5,1.3C9.2,20.8,9,21,8.8,20.9c-0.3,0-0.6,0-0.8,0c-0.3,0-0.6-0.1-0.6-0.4c-0.4-0.9-0.8-1.8-1.1-2.6
			C6.1,17.8,6.1,17.7,6,17.6"/>
		<path id="Trazado_85" class="st0" d="M28,18.6l0.8-1.8c0.2-0.4,0.4-0.8,0.5-1.3c0.1-0.2,0.3-0.3,0.5-0.3c1.2-0.1,1.2-0.1,1.7,1
			c0.3,0.8,0.6,1.5,1,2.4c0.1-0.2,0.1-0.2,0.1-0.3c0.3-0.9,0.7-1.7,1-2.6c0.1-0.3,0.3-0.5,0.6-0.4c0.3,0,0.7,0,1,0s0.5,0.2,0.3,0.5
			c-0.7,1.6-1.4,3.3-2.2,4.9c-0.1,0.1-0.3,0.2-0.4,0.3c0,0-0.1,0-0.1,0c-1.5,0-1.1,0.2-1.7-1.1c-0.3-0.7-0.6-1.4-0.9-2.1
			c0,0,0-0.1-0.1-0.1c-0.1,0.1-0.1,0.2-0.1,0.3c-0.4,0.9-0.8,1.7-1.2,2.6c-0.1,0.3-0.4,0.4-0.6,0.4c-1.5,0-1.1,0.2-1.7-1.1
			c-0.6-1.3-1.1-2.6-1.6-3.9c-0.2-0.5-0.1-0.7,0.4-0.7c0.3,0,0.6,0,1,0c0.3,0,0.5,0.1,0.6,0.4c0.3,0.9,0.6,1.7,0.9,2.6
			C27.8,18.3,27.9,18.4,28,18.6"/>
	</g>
</g>
</svg>
