<?xml version="1.0" encoding="utf-8"?>
<!-- Generator: Adobe Illustrator 26.3.1, SVG Export Plug-In . SVG Version: 6.00 Build 0)  -->
<svg version="1.1" id="Layer_1" xmlns="http://www.w3.org/2000/svg" xmlns:xlink="http://www.w3.org/1999/xlink" x="0px" y="0px"
	 viewBox="0 0 50 36.1" style="enable-background:new 0 0 50 36.1;" xml:space="preserve">
<style type="text/css">
	.st0{fill:#FFFFFF;}
</style>
<g>
	<g id="Grupo_1">
		<path id="Trazado_1" class="st0" d="M15,23.2c0,1.9,0,3.6,0,5.4c0,0.2-0.2,0.3-0.3,0.4c-1.3,0.5-2.7,1-4,1.5
			c-1.9,0.6-3.9-0.3-4.6-2.2c-1.7-4.5-3.3-9-4.9-13.5c-0.7-1.9,0.4-4,2.3-4.6c0,0,0,0,0.1,0c1.9-0.7,3.7-1.4,5.6-2
			c5.6-2.2,11.3-4.3,17-6.3c0.9-0.4,2-0.4,3,0c0.8,0.3,1.5,1,1.9,1.8C32,6,32.9,8.5,33.8,11c-0.3,0-0.4,0-0.6,0c-4,0-8.1,0-12.1,0
			c-3.1-0.2-5.8,2.3-6,5.4c0,0.2,0,0.4,0,0.6c0,1.2,0,2.4,0,3.7c0.1,0.4-0.2,0.7-0.5,0.7c-1.6,0.5-3.1,1.1-4.6,1.7
			c-0.7,0.3-0.9,0.7-0.7,1.3s0.7,0.7,1.4,0.4c1.3-0.5,2.5-0.9,3.8-1.4C14.5,23.4,14.7,23.3,15,23.2 M12.8,17.1
			c-0.3-0.9-0.7-1.7-1.1-2.5c-0.3-0.5-1-0.7-1.6-0.5c-0.9,0.3-1.9,0.7-2.8,1c-0.7,0.3-1.1,1.1-0.8,1.8c0.2,0.6,0.4,1.2,0.7,1.8
			C7.4,19.6,8.3,20,9,19.8l0,0c0.9-0.3,1.9-0.7,2.8-1C12.5,18.5,12.8,18,12.8,17.1"/>
		<path id="Trazado_2" class="st0" d="M33,34.6c-4,0-8,0-12,0c-2,0.1-3.8-1.4-3.9-3.5c0-0.2,0-0.4,0-0.6c0-4.2,0-8.3,0-12.5
			c0-0.7,0-1.4,0.1-2.2c0.4-1.7,1.9-3,3.7-2.9c4.8,0,9.6,0,14.4,0c3.3,0,6.5,0,9.8,0c2-0.1,3.7,1.4,3.9,3.4c0,0.1,0,0.3,0,0.4
			c0,4.6,0,9.3,0,13.9c0.1,2-1.5,3.6-3.4,3.7c-0.1,0-0.2,0-0.3,0C41.2,34.6,37.1,34.6,33,34.6L33,34.6z M19.6,22.9
			c0,0.2,0,0.4,0,0.6c0,2.4,0,4.8,0,7.2c0,1,0.4,1.4,1.4,1.4c8,0,16,0,24,0c1.1,0,1.5-0.4,1.5-1.5c0-2.3,0-4.7,0-7
			c0-0.2,0-0.4,0-0.6L19.6,22.9z M19.6,18.3h26.9c0-0.5,0-0.9,0-1.3c0-1.1-0.4-1.5-1.5-1.5c-2.5,0-4.9,0-7.4,0c-5.6,0-11.1,0-16.7,0
			c-0.8,0-1.3,0.4-1.4,1.1C19.6,17.2,19.6,17.7,19.6,18.3"/>
		<path id="Trazado_3" class="st0" d="M29.2,27h-6c-0.1,0-0.3,0-0.4,0c-0.5,0-0.9-0.4-0.8-0.9c0-0.4,0.4-0.8,0.8-0.8
			c0.2,0,0.4,0,0.6,0h12c0.1,0,0.1,0,0.2,0c0.5,0,0.9,0.4,0.9,0.9l0,0c0,0.5-0.4,0.9-0.9,0.9h-0.1c-1.9,0-3.7,0-5.6,0L29.2,27
			L29.2,27"/>
	</g>
</g>
</svg>
