<?xml version="1.0" encoding="utf-8"?>
<!-- Generator: Adobe Illustrator 26.3.1, SVG Export Plug-In . SVG Version: 6.00 Build 0)  -->
<svg version="1.1" id="Layer_1" xmlns="http://www.w3.org/2000/svg" xmlns:xlink="http://www.w3.org/1999/xlink" x="0px" y="0px"
	 viewBox="0 0 25.8 36.1" style="enable-background:new 0 0 25.8 36.1;" xml:space="preserve">
<style type="text/css">
	.st0{fill:#DC354B;}
</style>
<g>
	<g id="Grupo_25">
		<path id="Trazado_80" class="st0" d="M8,0.6c0.1,0,0.3,0.1,0.4,0.1c0.5,0.2,0.8,0.6,0.9,1.1c0.6,2.9,1.1,5.9,1.7,8.8
			c0.1,0.5,0,0.9-0.4,1.2c-0.5,0.4-1.1,0.8-1.8,1c-0.4,0.1-0.9,0.3-1.3,0.4c-0.4,0.1-0.7,0.2-0.8,0.7c0,0.1,0,0.3,0,0.4
			c0.5,2,1.4,3.9,2.5,5.6c0.9,1.4,1.9,2.8,3,4c0.1,0.1,0.2,0.2,0.4,0.4c0.6,0.6,1.7,0.6,2.3-0.1c0.2-0.2,0.4-0.4,0.6-0.5
			c0.7-0.5,1.6-0.6,2.3-0.3c0.1,0,0.2,0.1,0.3,0.2c2.3,2,4.5,4.1,6.8,6.2c0.2,0.1,0.2,0.3,0.1,0.4c0,0.1-0.1,0.2-0.1,0.3
			c-0.2,0.9-0.6,1.7-1.2,2.3c-1.5,1.8-3.8,2.8-6.1,2.5c-0.2,0-0.5-0.1-0.7-0.1c-0.3,0-0.7-0.2-1-0.4c-5.6-3.8-10-9.1-12.5-15.4
			c-1.2-2.8-2-5.7-2.5-8.7C0.8,9.7,0.7,8.4,0.6,7.1c0-0.5,0-0.9,0.1-1.4c0-0.4,0.1-0.8,0.2-1.3c0.1-0.3,0.2-0.7,0.3-1
			c0.1-0.1,0.1-0.2,0.2-0.2c0.7-0.6,1.4-1,2.2-1.3c0.9-0.4,1.8-0.7,2.8-1c0.4-0.1,0.7-0.2,1.1-0.3H8z"/>
	</g>
</g>
</svg>
